solid OpenSCAD_Model
  facet normal 0.98229 0.187369 0
    outer loop
      vertex 19.8423 2.50666 10
      vertex 19.3717 4.9738 0
      vertex 19.3717 4.9738 10
    endloop
  endfacet
  facet normal 0.98229 0.187369 0
    outer loop
      vertex 19.3717 4.9738 0
      vertex 19.8423 2.50666 10
      vertex 19.8423 2.50666 0
    endloop
  endfacet
  facet normal 0.998027 0.0627883 0
    outer loop
      vertex 20 0 10
      vertex 19.8423 2.50666 0
      vertex 19.8423 2.50666 10
    endloop
  endfacet
  facet normal 0.998027 0.0627883 0
    outer loop
      vertex 19.8423 2.50666 0
      vertex 20 0 10
      vertex 20 0 0
    endloop
  endfacet
  facet normal 0.951049 0.309041 0
    outer loop
      vertex 19.3717 4.9738 10
      vertex 18.5955 7.36249 0
      vertex 18.5955 7.36249 10
    endloop
  endfacet
  facet normal 0.951049 0.309041 0
    outer loop
      vertex 18.5955 7.36249 0
      vertex 19.3717 4.9738 10
      vertex 19.3717 4.9738 0
    endloop
  endfacet
  facet normal -0.904826 0.425781 0
    outer loop
      vertex -18.5955 7.36249 0
      vertex -17.5261 9.63507 10
      vertex -17.5261 9.63507 0
    endloop
  endfacet
  facet normal -0.904826 0.425781 0
    outer loop
      vertex -17.5261 9.63507 10
      vertex -18.5955 7.36249 0
      vertex -18.5955 7.36249 10
    endloop
  endfacet
  facet normal -0.951049 -0.309041 0
    outer loop
      vertex -18.5955 -7.36249 0
      vertex -19.3717 -4.9738 10
      vertex -19.3717 -4.9738 0
    endloop
  endfacet
  facet normal -0.951049 -0.309041 0
    outer loop
      vertex -19.3717 -4.9738 10
      vertex -18.5955 -7.36249 0
      vertex -18.5955 -7.36249 10
    endloop
  endfacet
  facet normal -0.481733 -0.876318 0
    outer loop
      vertex -10.7165 -16.8866 0
      vertex -8.51558 -18.0965 10
      vertex -10.7165 -16.8866 10
    endloop
  endfacet
  facet normal -0.481733 -0.876318 -0
    outer loop
      vertex -8.51558 -18.0965 10
      vertex -10.7165 -16.8866 0
      vertex -8.51558 -18.0965 0
    endloop
  endfacet
  facet normal 0.368129 0.929775 -0
    outer loop
      vertex 8.51558 18.0965 0
      vertex 6.18034 19.0211 10
      vertex 8.51558 18.0965 10
    endloop
  endfacet
  facet normal 0.368129 0.929775 0
    outer loop
      vertex 6.18034 19.0211 10
      vertex 8.51558 18.0965 0
      vertex 6.18034 19.0211 0
    endloop
  endfacet
  facet normal 0.844327 -0.535829 0
    outer loop
      vertex 16.1803 -11.7557 10
      vertex 17.5261 -9.63507 0
      vertex 17.5261 -9.63507 10
    endloop
  endfacet
  facet normal 0.844327 -0.535829 0
    outer loop
      vertex 17.5261 -9.63507 0
      vertex 16.1803 -11.7557 10
      vertex 16.1803 -11.7557 0
    endloop
  endfacet
  facet normal -0.368129 0.929775 0
    outer loop
      vertex -6.18034 19.0211 0
      vertex -8.51558 18.0965 10
      vertex -6.18034 19.0211 10
    endloop
  endfacet
  facet normal -0.368129 0.929775 0
    outer loop
      vertex -8.51558 18.0965 10
      vertex -6.18034 19.0211 0
      vertex -8.51558 18.0965 0
    endloop
  endfacet
  facet normal -0.844327 0.535829 0
    outer loop
      vertex -17.5261 9.63507 0
      vertex -16.1803 11.7557 10
      vertex -16.1803 11.7557 0
    endloop
  endfacet
  facet normal -0.844327 0.535829 0
    outer loop
      vertex -16.1803 11.7557 10
      vertex -17.5261 9.63507 0
      vertex -17.5261 9.63507 10
    endloop
  endfacet
  facet normal 0.248685 -0.968584 0
    outer loop
      vertex 3.74763 -19.6457 0
      vertex 6.18034 -19.0211 10
      vertex 3.74763 -19.6457 10
    endloop
  endfacet
  facet normal 0.248685 -0.968584 0
    outer loop
      vertex 6.18034 -19.0211 10
      vertex 3.74763 -19.6457 0
      vertex 6.18034 -19.0211 0
    endloop
  endfacet
  facet normal 0.904826 0.425781 0
    outer loop
      vertex 18.5955 7.36249 10
      vertex 17.5261 9.63507 0
      vertex 17.5261 9.63507 10
    endloop
  endfacet
  facet normal 0.904826 0.425781 0
    outer loop
      vertex 17.5261 9.63507 0
      vertex 18.5955 7.36249 10
      vertex 18.5955 7.36249 0
    endloop
  endfacet
  facet normal 0 0 1
    outer loop
      vertex 10 0 10
      vertex 20 0 10
      vertex 19.8423 2.50666 10
    endloop
  endfacet
  facet normal 0 0 1
    outer loop
      vertex 9.92115 1.25333 10
      vertex 19.8423 2.50666 10
      vertex 19.3717 4.9738 10
    endloop
  endfacet
  facet normal 0 0 1
    outer loop
      vertex 20 0 10
      vertex 10 0 10
      vertex 19.8423 -2.50666 10
    endloop
  endfacet
  facet normal 0 0 1
    outer loop
      vertex 9.68583 2.4869 10
      vertex 19.3717 4.9738 10
      vertex 18.5955 7.36249 10
    endloop
  endfacet
  facet normal -0 0 1
    outer loop
      vertex 9.92115 -1.25333 10
      vertex 19.8423 -2.50666 10
      vertex 10 0 10
    endloop
  endfacet
  facet normal 0 0 1
    outer loop
      vertex 9.29776 3.68124 10
      vertex 18.5955 7.36249 10
      vertex 17.5261 9.63507 10
    endloop
  endfacet
  facet normal 0 0 1
    outer loop
      vertex 19.8423 -2.50666 10
      vertex 9.92115 -1.25333 10
      vertex 19.3717 -4.9738 10
    endloop
  endfacet
  facet normal 0 0 1
    outer loop
      vertex 8.76307 4.81754 10
      vertex 17.5261 9.63507 10
      vertex 16.1803 11.7557 10
    endloop
  endfacet
  facet normal -0 0 1
    outer loop
      vertex 9.68583 -2.4869 10
      vertex 19.3717 -4.9738 10
      vertex 9.92115 -1.25333 10
    endloop
  endfacet
  facet normal 0 0 1
    outer loop
      vertex 8.09017 5.87785 10
      vertex 16.1803 11.7557 10
      vertex 14.5794 13.6909 10
    endloop
  endfacet
  facet normal 0 0 1
    outer loop
      vertex 19.3717 -4.9738 10
      vertex 9.68583 -2.4869 10
      vertex 18.5955 -7.36249 10
    endloop
  endfacet
  facet normal 0 0 1
    outer loop
      vertex 7.28969 6.84547 10
      vertex 14.5794 13.6909 10
      vertex 12.7485 15.4103 10
    endloop
  endfacet
  facet normal -0 0 1
    outer loop
      vertex 9.29776 -3.68124 10
      vertex 18.5955 -7.36249 10
      vertex 9.68583 -2.4869 10
    endloop
  endfacet
  facet normal 0 0 1
    outer loop
      vertex 6.37424 7.70513 10
      vertex 12.7485 15.4103 10
      vertex 10.7165 16.8866 10
    endloop
  endfacet
  facet normal 0 0 1
    outer loop
      vertex 18.5955 -7.36249 10
      vertex 9.29776 -3.68124 10
      vertex 17.5261 -9.63507 10
    endloop
  endfacet
  facet normal -0 0 1
    outer loop
      vertex 8.76307 -4.81754 10
      vertex 17.5261 -9.63507 10
      vertex 9.29776 -3.68124 10
    endloop
  endfacet
  facet normal 0 0 1
    outer loop
      vertex 19.8423 2.50666 10
      vertex 9.92115 1.25333 10
      vertex 10 0 10
    endloop
  endfacet
  facet normal 0 0 1
    outer loop
      vertex 19.3717 4.9738 10
      vertex 9.68583 2.4869 10
      vertex 9.92115 1.25333 10
    endloop
  endfacet
  facet normal 0 0 1
    outer loop
      vertex 18.5955 7.36249 10
      vertex 9.29776 3.68124 10
      vertex 9.68583 2.4869 10
    endloop
  endfacet
  facet normal 0 0 1
    outer loop
      vertex 17.5261 9.63507 10
      vertex 8.76307 4.81754 10
      vertex 9.29776 3.68124 10
    endloop
  endfacet
  facet normal 0 0 1
    outer loop
      vertex 5.35827 8.44328 10
      vertex 10.7165 16.8866 10
      vertex 8.51558 18.0965 10
    endloop
  endfacet
  facet normal 0 0 1
    outer loop
      vertex 16.1803 11.7557 10
      vertex 8.09017 5.87785 10
      vertex 8.76307 4.81754 10
    endloop
  endfacet
  facet normal 0 0 1
    outer loop
      vertex 14.5794 13.6909 10
      vertex 7.28969 6.84547 10
      vertex 8.09017 5.87785 10
    endloop
  endfacet
  facet normal 0 0 1
    outer loop
      vertex 12.7485 15.4103 10
      vertex 6.37424 7.70513 10
      vertex 7.28969 6.84547 10
    endloop
  endfacet
  facet normal 0 0 1
    outer loop
      vertex 4.25779 9.04827 10
      vertex 8.51558 18.0965 10
      vertex 6.18034 19.0211 10
    endloop
  endfacet
  facet normal 0 0 1
    outer loop
      vertex 10.7165 16.8866 10
      vertex 5.35827 8.44328 10
      vertex 6.37424 7.70513 10
    endloop
  endfacet
  facet normal 0 0 1
    outer loop
      vertex 8.51558 18.0965 10
      vertex 4.25779 9.04827 10
      vertex 5.35827 8.44328 10
    endloop
  endfacet
  facet normal 0 0 1
    outer loop
      vertex 3.09017 9.51056 10
      vertex 6.18034 19.0211 10
      vertex 3.74763 19.6457 10
    endloop
  endfacet
  facet normal 0 0 1
    outer loop
      vertex 6.18034 19.0211 10
      vertex 3.09017 9.51056 10
      vertex 4.25779 9.04827 10
    endloop
  endfacet
  facet normal 0 0 1
    outer loop
      vertex 3.74763 19.6457 10
      vertex 1.87381 9.82287 10
      vertex 3.09017 9.51056 10
    endloop
  endfacet
  facet normal 0 0 1
    outer loop
      vertex 1.25581 19.9605 10
      vertex 1.87381 9.82287 10
      vertex 3.74763 19.6457 10
    endloop
  endfacet
  facet normal 0 0 1
    outer loop
      vertex 1.25581 19.9605 10
      vertex 0.627905 9.98027 10
      vertex 1.87381 9.82287 10
    endloop
  endfacet
  facet normal 0 0 1
    outer loop
      vertex 1.25581 19.9605 10
      vertex -0.627905 9.98027 10
      vertex 0.627905 9.98027 10
    endloop
  endfacet
  facet normal -0 0 1
    outer loop
      vertex -1.25581 19.9605 10
      vertex -0.627905 9.98027 10
      vertex 1.25581 19.9605 10
    endloop
  endfacet
  facet normal 0 0 1
    outer loop
      vertex -1.25581 19.9605 10
      vertex -1.87381 9.82287 10
      vertex -0.627905 9.98027 10
    endloop
  endfacet
  facet normal -0 0 1
    outer loop
      vertex -3.74763 19.6457 10
      vertex -1.87381 9.82287 10
      vertex -1.25581 19.9605 10
    endloop
  endfacet
  facet normal 0 0 1
    outer loop
      vertex -1.87381 9.82287 10
      vertex -3.74763 19.6457 10
      vertex -3.09017 9.51056 10
    endloop
  endfacet
  facet normal -0 0 1
    outer loop
      vertex -6.18034 19.0211 10
      vertex -3.09017 9.51056 10
      vertex -3.74763 19.6457 10
    endloop
  endfacet
  facet normal 0 0 1
    outer loop
      vertex -3.09017 9.51056 10
      vertex -6.18034 19.0211 10
      vertex -4.25779 9.04827 10
    endloop
  endfacet
  facet normal -0 0 1
    outer loop
      vertex -8.51558 18.0965 10
      vertex -4.25779 9.04827 10
      vertex -6.18034 19.0211 10
    endloop
  endfacet
  facet normal 0 0 1
    outer loop
      vertex -4.25779 9.04827 10
      vertex -8.51558 18.0965 10
      vertex -5.35827 8.44328 10
    endloop
  endfacet
  facet normal -0 0 1
    outer loop
      vertex -10.7165 16.8866 10
      vertex -5.35827 8.44328 10
      vertex -8.51558 18.0965 10
    endloop
  endfacet
  facet normal 0 0 1
    outer loop
      vertex -5.35827 8.44328 10
      vertex -10.7165 16.8866 10
      vertex -6.37424 7.70513 10
    endloop
  endfacet
  facet normal -0 0 1
    outer loop
      vertex -12.7485 15.4103 10
      vertex -6.37424 7.70513 10
      vertex -10.7165 16.8866 10
    endloop
  endfacet
  facet normal 0 0 1
    outer loop
      vertex -6.37424 7.70513 10
      vertex -12.7485 15.4103 10
      vertex -7.28969 6.84547 10
    endloop
  endfacet
  facet normal -0 0 1
    outer loop
      vertex -14.5794 13.6909 10
      vertex -7.28969 6.84547 10
      vertex -12.7485 15.4103 10
    endloop
  endfacet
  facet normal 0 0 1
    outer loop
      vertex -7.28969 6.84547 10
      vertex -14.5794 13.6909 10
      vertex -8.09017 5.87785 10
    endloop
  endfacet
  facet normal -0 0 1
    outer loop
      vertex -16.1803 11.7557 10
      vertex -8.09017 5.87785 10
      vertex -14.5794 13.6909 10
    endloop
  endfacet
  facet normal -0 0 1
    outer loop
      vertex -17.5261 9.63507 10
      vertex -8.76307 4.81754 10
      vertex -16.1803 11.7557 10
    endloop
  endfacet
  facet normal 0 0 1
    outer loop
      vertex -8.09017 5.87785 10
      vertex -16.1803 11.7557 10
      vertex -8.76307 4.81754 10
    endloop
  endfacet
  facet normal 0 0 1
    outer loop
      vertex 17.5261 -9.63507 10
      vertex 8.76307 -4.81754 10
      vertex 16.1803 -11.7557 10
    endloop
  endfacet
  facet normal -0 0 1
    outer loop
      vertex 8.09017 -5.87785 10
      vertex 16.1803 -11.7557 10
      vertex 8.76307 -4.81754 10
    endloop
  endfacet
  facet normal 0 0 1
    outer loop
      vertex 16.1803 -11.7557 10
      vertex 8.09017 -5.87785 10
      vertex 14.5794 -13.6909 10
    endloop
  endfacet
  facet normal -0 0 1
    outer loop
      vertex 7.28969 -6.84547 10
      vertex 14.5794 -13.6909 10
      vertex 8.09017 -5.87785 10
    endloop
  endfacet
  facet normal 0 0 1
    outer loop
      vertex 14.5794 -13.6909 10
      vertex 7.28969 -6.84547 10
      vertex 12.7485 -15.4103 10
    endloop
  endfacet
  facet normal -0 0 1
    outer loop
      vertex 6.37424 -7.70513 10
      vertex 12.7485 -15.4103 10
      vertex 7.28969 -6.84547 10
    endloop
  endfacet
  facet normal 0 0 1
    outer loop
      vertex 12.7485 -15.4103 10
      vertex 6.37424 -7.70513 10
      vertex 10.7165 -16.8866 10
    endloop
  endfacet
  facet normal -0 0 1
    outer loop
      vertex 5.35827 -8.44328 10
      vertex 10.7165 -16.8866 10
      vertex 6.37424 -7.70513 10
    endloop
  endfacet
  facet normal 0 0 1
    outer loop
      vertex 10.7165 -16.8866 10
      vertex 5.35827 -8.44328 10
      vertex 8.51558 -18.0965 10
    endloop
  endfacet
  facet normal -0 0 1
    outer loop
      vertex 4.25779 -9.04827 10
      vertex 8.51558 -18.0965 10
      vertex 5.35827 -8.44328 10
    endloop
  endfacet
  facet normal 0 0 1
    outer loop
      vertex 8.51558 -18.0965 10
      vertex 4.25779 -9.04827 10
      vertex 6.18034 -19.0211 10
    endloop
  endfacet
  facet normal -0 0 1
    outer loop
      vertex 3.09017 -9.51056 10
      vertex 6.18034 -19.0211 10
      vertex 4.25779 -9.04827 10
    endloop
  endfacet
  facet normal 0 0 1
    outer loop
      vertex 6.18034 -19.0211 10
      vertex 3.09017 -9.51056 10
      vertex 3.74763 -19.6457 10
    endloop
  endfacet
  facet normal -0 0 1
    outer loop
      vertex 1.87381 -9.82287 10
      vertex 3.74763 -19.6457 10
      vertex 3.09017 -9.51056 10
    endloop
  endfacet
  facet normal 0 0 1
    outer loop
      vertex 1.87381 -9.82287 10
      vertex 1.25581 -19.9605 10
      vertex 3.74763 -19.6457 10
    endloop
  endfacet
  facet normal -0 0 1
    outer loop
      vertex 0.627905 -9.98027 10
      vertex 1.25581 -19.9605 10
      vertex 1.87381 -9.82287 10
    endloop
  endfacet
  facet normal -0 0 1
    outer loop
      vertex -0.627905 -9.98027 10
      vertex 1.25581 -19.9605 10
      vertex 0.627905 -9.98027 10
    endloop
  endfacet
  facet normal 0 0 1
    outer loop
      vertex -0.627905 -9.98027 10
      vertex -1.25581 -19.9605 10
      vertex 1.25581 -19.9605 10
    endloop
  endfacet
  facet normal 0 0 1
    outer loop
      vertex -1.87381 -9.82287 10
      vertex -1.25581 -19.9605 10
      vertex -0.627905 -9.98027 10
    endloop
  endfacet
  facet normal 0 0 1
    outer loop
      vertex -3.74763 -19.6457 10
      vertex -1.87381 -9.82287 10
      vertex -3.09017 -9.51056 10
    endloop
  endfacet
  facet normal 0 0 1
    outer loop
      vertex -1.87381 -9.82287 10
      vertex -3.74763 -19.6457 10
      vertex -1.25581 -19.9605 10
    endloop
  endfacet
  facet normal 0 0 1
    outer loop
      vertex -6.18034 -19.0211 10
      vertex -3.09017 -9.51056 10
      vertex -4.25779 -9.04827 10
    endloop
  endfacet
  facet normal 0 0 1
    outer loop
      vertex -8.51558 -18.0965 10
      vertex -4.25779 -9.04827 10
      vertex -5.35827 -8.44328 10
    endloop
  endfacet
  facet normal 0 0 1
    outer loop
      vertex -3.09017 -9.51056 10
      vertex -6.18034 -19.0211 10
      vertex -3.74763 -19.6457 10
    endloop
  endfacet
  facet normal 0 0 1
    outer loop
      vertex -10.7165 -16.8866 10
      vertex -5.35827 -8.44328 10
      vertex -6.37424 -7.70513 10
    endloop
  endfacet
  facet normal 0 0 1
    outer loop
      vertex -12.7485 -15.4103 10
      vertex -6.37424 -7.70513 10
      vertex -7.28969 -6.84547 10
    endloop
  endfacet
  facet normal 0 0 1
    outer loop
      vertex -14.5794 -13.6909 10
      vertex -7.28969 -6.84547 10
      vertex -8.09017 -5.87785 10
    endloop
  endfacet
  facet normal 0 0 1
    outer loop
      vertex -4.25779 -9.04827 10
      vertex -8.51558 -18.0965 10
      vertex -6.18034 -19.0211 10
    endloop
  endfacet
  facet normal 0 0 1
    outer loop
      vertex -16.1803 -11.7557 10
      vertex -8.09017 -5.87785 10
      vertex -8.76307 -4.81754 10
    endloop
  endfacet
  facet normal 0 0 1
    outer loop
      vertex -17.5261 -9.63507 10
      vertex -8.76307 -4.81754 10
      vertex -9.29776 -3.68124 10
    endloop
  endfacet
  facet normal 0 0 1
    outer loop
      vertex -18.5955 -7.36249 10
      vertex -9.29776 -3.68124 10
      vertex -9.68583 -2.4869 10
    endloop
  endfacet
  facet normal 0 0 1
    outer loop
      vertex -19.3717 -4.9738 10
      vertex -9.68583 -2.4869 10
      vertex -9.92115 -1.25333 10
    endloop
  endfacet
  facet normal 0 0 1
    outer loop
      vertex -5.35827 -8.44328 10
      vertex -10.7165 -16.8866 10
      vertex -8.51558 -18.0965 10
    endloop
  endfacet
  facet normal 0 0 1
    outer loop
      vertex -19.8423 -2.50666 10
      vertex -9.92115 -1.25333 10
      vertex -10 0 10
    endloop
  endfacet
  facet normal 0 0 1
    outer loop
      vertex -8.76307 4.81754 10
      vertex -17.5261 9.63507 10
      vertex -9.29776 3.68124 10
    endloop
  endfacet
  facet normal -0 0 1
    outer loop
      vertex -18.5955 7.36249 10
      vertex -9.29776 3.68124 10
      vertex -17.5261 9.63507 10
    endloop
  endfacet
  facet normal 0 0 1
    outer loop
      vertex -6.37424 -7.70513 10
      vertex -12.7485 -15.4103 10
      vertex -10.7165 -16.8866 10
    endloop
  endfacet
  facet normal 0 0 1
    outer loop
      vertex -9.29776 3.68124 10
      vertex -18.5955 7.36249 10
      vertex -9.68583 2.4869 10
    endloop
  endfacet
  facet normal 0 0 1
    outer loop
      vertex -7.28969 -6.84547 10
      vertex -14.5794 -13.6909 10
      vertex -12.7485 -15.4103 10
    endloop
  endfacet
  facet normal -0 0 1
    outer loop
      vertex -19.3717 4.9738 10
      vertex -9.68583 2.4869 10
      vertex -18.5955 7.36249 10
    endloop
  endfacet
  facet normal 0 0 1
    outer loop
      vertex -8.09017 -5.87785 10
      vertex -16.1803 -11.7557 10
      vertex -14.5794 -13.6909 10
    endloop
  endfacet
  facet normal 0 0 1
    outer loop
      vertex -9.68583 2.4869 10
      vertex -19.3717 4.9738 10
      vertex -9.92115 1.25333 10
    endloop
  endfacet
  facet normal 0 0 1
    outer loop
      vertex -8.76307 -4.81754 10
      vertex -17.5261 -9.63507 10
      vertex -16.1803 -11.7557 10
    endloop
  endfacet
  facet normal -0 0 1
    outer loop
      vertex -19.8423 2.50666 10
      vertex -9.92115 1.25333 10
      vertex -19.3717 4.9738 10
    endloop
  endfacet
  facet normal 0 0 1
    outer loop
      vertex -9.29776 -3.68124 10
      vertex -18.5955 -7.36249 10
      vertex -17.5261 -9.63507 10
    endloop
  endfacet
  facet normal 0 0 1
    outer loop
      vertex -9.92115 1.25333 10
      vertex -19.8423 2.50666 10
      vertex -10 0 10
    endloop
  endfacet
  facet normal 0 0 1
    outer loop
      vertex -9.68583 -2.4869 10
      vertex -19.3717 -4.9738 10
      vertex -18.5955 -7.36249 10
    endloop
  endfacet
  facet normal 0 0 1
    outer loop
      vertex -20 0 10
      vertex -10 0 10
      vertex -19.8423 2.50666 10
    endloop
  endfacet
  facet normal 0 0 1
    outer loop
      vertex -9.92115 -1.25333 10
      vertex -19.8423 -2.50666 10
      vertex -19.3717 -4.9738 10
    endloop
  endfacet
  facet normal 0 0 1
    outer loop
      vertex -10 0 10
      vertex -20 0 10
      vertex -19.8423 -2.50666 10
    endloop
  endfacet
  facet normal -0.368129 -0.929775 0
    outer loop
      vertex -8.51558 -18.0965 0
      vertex -6.18034 -19.0211 10
      vertex -8.51558 -18.0965 10
    endloop
  endfacet
  facet normal -0.368129 -0.929775 -0
    outer loop
      vertex -6.18034 -19.0211 10
      vertex -8.51558 -18.0965 0
      vertex -6.18034 -19.0211 0
    endloop
  endfacet
  facet normal 0.684562 -0.728955 0
    outer loop
      vertex 12.7485 -15.4103 0
      vertex 14.5794 -13.6909 10
      vertex 12.7485 -15.4103 10
    endloop
  endfacet
  facet normal 0.684562 -0.728955 0
    outer loop
      vertex 14.5794 -13.6909 10
      vertex 12.7485 -15.4103 0
      vertex 14.5794 -13.6909 0
    endloop
  endfacet
  facet normal 0.951049 -0.309041 0
    outer loop
      vertex 18.5955 -7.36249 10
      vertex 19.3717 -4.9738 0
      vertex 19.3717 -4.9738 10
    endloop
  endfacet
  facet normal 0.951049 -0.309041 0
    outer loop
      vertex 19.3717 -4.9738 0
      vertex 18.5955 -7.36249 10
      vertex 18.5955 -7.36249 0
    endloop
  endfacet
  facet normal 0.125337 -0.992114 0
    outer loop
      vertex 1.25581 -19.9605 0
      vertex 3.74763 -19.6457 10
      vertex 1.25581 -19.9605 10
    endloop
  endfacet
  facet normal 0.125337 -0.992114 0
    outer loop
      vertex 3.74763 -19.6457 10
      vertex 1.25581 -19.9605 0
      vertex 3.74763 -19.6457 0
    endloop
  endfacet
  facet normal 0.481733 -0.876318 0
    outer loop
      vertex 8.51558 -18.0965 0
      vertex 10.7165 -16.8866 10
      vertex 8.51558 -18.0965 10
    endloop
  endfacet
  facet normal 0.481733 -0.876318 0
    outer loop
      vertex 10.7165 -16.8866 10
      vertex 8.51558 -18.0965 0
      vertex 10.7165 -16.8866 0
    endloop
  endfacet
  facet normal -0.587776 -0.809024 0
    outer loop
      vertex -12.7485 -15.4103 0
      vertex -10.7165 -16.8866 10
      vertex -12.7485 -15.4103 10
    endloop
  endfacet
  facet normal -0.587776 -0.809024 -0
    outer loop
      vertex -10.7165 -16.8866 10
      vertex -12.7485 -15.4103 0
      vertex -10.7165 -16.8866 0
    endloop
  endfacet
  facet normal 0.248685 0.968584 -0
    outer loop
      vertex 6.18034 19.0211 0
      vertex 3.74763 19.6457 10
      vertex 6.18034 19.0211 10
    endloop
  endfacet
  facet normal 0.248685 0.968584 0
    outer loop
      vertex 3.74763 19.6457 10
      vertex 6.18034 19.0211 0
      vertex 3.74763 19.6457 0
    endloop
  endfacet
  facet normal 0.587776 0.809024 -0
    outer loop
      vertex 12.7485 15.4103 0
      vertex 10.7165 16.8866 10
      vertex 12.7485 15.4103 10
    endloop
  endfacet
  facet normal 0.587776 0.809024 0
    outer loop
      vertex 10.7165 16.8866 10
      vertex 12.7485 15.4103 0
      vertex 10.7165 16.8866 0
    endloop
  endfacet
  facet normal -0.125337 -0.992114 0
    outer loop
      vertex -3.74763 -19.6457 0
      vertex -1.25581 -19.9605 10
      vertex -3.74763 -19.6457 10
    endloop
  endfacet
  facet normal -0.125337 -0.992114 -0
    outer loop
      vertex -1.25581 -19.9605 10
      vertex -3.74763 -19.6457 0
      vertex -1.25581 -19.9605 0
    endloop
  endfacet
  facet normal 0.98229 -0.187369 0
    outer loop
      vertex 19.3717 -4.9738 10
      vertex 19.8423 -2.50666 0
      vertex 19.8423 -2.50666 10
    endloop
  endfacet
  facet normal 0.98229 -0.187369 0
    outer loop
      vertex 19.8423 -2.50666 0
      vertex 19.3717 -4.9738 10
      vertex 19.3717 -4.9738 0
    endloop
  endfacet
  facet normal 0.844327 0.535829 0
    outer loop
      vertex 17.5261 9.63507 10
      vertex 16.1803 11.7557 0
      vertex 16.1803 11.7557 10
    endloop
  endfacet
  facet normal 0.844327 0.535829 0
    outer loop
      vertex 16.1803 11.7557 0
      vertex 17.5261 9.63507 10
      vertex 17.5261 9.63507 0
    endloop
  endfacet
  facet normal -0.844327 -0.535829 0
    outer loop
      vertex -16.1803 -11.7557 0
      vertex -17.5261 -9.63507 10
      vertex -17.5261 -9.63507 0
    endloop
  endfacet
  facet normal -0.844327 -0.535829 0
    outer loop
      vertex -17.5261 -9.63507 10
      vertex -16.1803 -11.7557 0
      vertex -16.1803 -11.7557 10
    endloop
  endfacet
  facet normal -0.77052 0.637415 0
    outer loop
      vertex -16.1803 11.7557 0
      vertex -14.5794 13.6909 10
      vertex -14.5794 13.6909 0
    endloop
  endfacet
  facet normal -0.77052 0.637415 0
    outer loop
      vertex -14.5794 13.6909 10
      vertex -16.1803 11.7557 0
      vertex -16.1803 11.7557 10
    endloop
  endfacet
  facet normal 0.125337 0.992114 -0
    outer loop
      vertex 3.74763 19.6457 0
      vertex 1.25581 19.9605 10
      vertex 3.74763 19.6457 10
    endloop
  endfacet
  facet normal 0.125337 0.992114 0
    outer loop
      vertex 1.25581 19.9605 10
      vertex 3.74763 19.6457 0
      vertex 1.25581 19.9605 0
    endloop
  endfacet
  facet normal 0.684562 0.728955 -0
    outer loop
      vertex 14.5794 13.6909 0
      vertex 12.7485 15.4103 10
      vertex 14.5794 13.6909 10
    endloop
  endfacet
  facet normal 0.684562 0.728955 0
    outer loop
      vertex 12.7485 15.4103 10
      vertex 14.5794 13.6909 0
      vertex 12.7485 15.4103 0
    endloop
  endfacet
  facet normal -0.481733 0.876318 0
    outer loop
      vertex -8.51558 18.0965 0
      vertex -10.7165 16.8866 10
      vertex -8.51558 18.0965 10
    endloop
  endfacet
  facet normal -0.481733 0.876318 0
    outer loop
      vertex -10.7165 16.8866 10
      vertex -8.51558 18.0965 0
      vertex -10.7165 16.8866 0
    endloop
  endfacet
  facet normal 0.481733 0.876318 -0
    outer loop
      vertex 10.7165 16.8866 0
      vertex 8.51558 18.0965 10
      vertex 10.7165 16.8866 10
    endloop
  endfacet
  facet normal 0.481733 0.876318 0
    outer loop
      vertex 8.51558 18.0965 10
      vertex 10.7165 16.8866 0
      vertex 8.51558 18.0965 0
    endloop
  endfacet
  facet normal 0.77052 0.637415 0
    outer loop
      vertex 16.1803 11.7557 10
      vertex 14.5794 13.6909 0
      vertex 14.5794 13.6909 10
    endloop
  endfacet
  facet normal 0.77052 0.637415 0
    outer loop
      vertex 14.5794 13.6909 0
      vertex 16.1803 11.7557 10
      vertex 16.1803 11.7557 0
    endloop
  endfacet
  facet normal 0.998027 -0.0627883 0
    outer loop
      vertex 19.8423 -2.50666 10
      vertex 20 0 0
      vertex 20 0 10
    endloop
  endfacet
  facet normal 0.998027 -0.0627883 0
    outer loop
      vertex 20 0 0
      vertex 19.8423 -2.50666 10
      vertex 19.8423 -2.50666 0
    endloop
  endfacet
  facet normal -0.248685 0.968584 0
    outer loop
      vertex -3.74763 19.6457 0
      vertex -6.18034 19.0211 10
      vertex -3.74763 19.6457 10
    endloop
  endfacet
  facet normal -0.248685 0.968584 0
    outer loop
      vertex -6.18034 19.0211 10
      vertex -3.74763 19.6457 0
      vertex -6.18034 19.0211 0
    endloop
  endfacet
  facet normal 0.77052 -0.637415 0
    outer loop
      vertex 14.5794 -13.6909 10
      vertex 16.1803 -11.7557 0
      vertex 16.1803 -11.7557 10
    endloop
  endfacet
  facet normal 0.77052 -0.637415 0
    outer loop
      vertex 16.1803 -11.7557 0
      vertex 14.5794 -13.6909 10
      vertex 14.5794 -13.6909 0
    endloop
  endfacet
  facet normal 0 -1 0
    outer loop
      vertex -1.25581 -19.9605 0
      vertex 1.25581 -19.9605 10
      vertex -1.25581 -19.9605 10
    endloop
  endfacet
  facet normal 0 -1 -0
    outer loop
      vertex 1.25581 -19.9605 10
      vertex -1.25581 -19.9605 0
      vertex 1.25581 -19.9605 0
    endloop
  endfacet
  facet normal 0 1 -0
    outer loop
      vertex 1.25581 19.9605 0
      vertex -1.25581 19.9605 10
      vertex 1.25581 19.9605 10
    endloop
  endfacet
  facet normal 0 1 0
    outer loop
      vertex -1.25581 19.9605 10
      vertex 1.25581 19.9605 0
      vertex -1.25581 19.9605 0
    endloop
  endfacet
  facet normal -0.77052 -0.637415 0
    outer loop
      vertex -14.5794 -13.6909 0
      vertex -16.1803 -11.7557 10
      vertex -16.1803 -11.7557 0
    endloop
  endfacet
  facet normal -0.77052 -0.637415 0
    outer loop
      vertex -16.1803 -11.7557 10
      vertex -14.5794 -13.6909 0
      vertex -14.5794 -13.6909 10
    endloop
  endfacet
  facet normal 0.587776 -0.809024 0
    outer loop
      vertex 10.7165 -16.8866 0
      vertex 12.7485 -15.4103 10
      vertex 10.7165 -16.8866 10
    endloop
  endfacet
  facet normal 0.587776 -0.809024 0
    outer loop
      vertex 12.7485 -15.4103 10
      vertex 10.7165 -16.8866 0
      vertex 12.7485 -15.4103 0
    endloop
  endfacet
  facet normal 0 0 -1
    outer loop
      vertex 19.8423 -2.50666 0
      vertex 19.8423 2.50666 0
      vertex 20 0 0
    endloop
  endfacet
  facet normal 0 0 -1
    outer loop
      vertex 19.3717 -4.9738 0
      vertex 19.8423 2.50666 0
      vertex 19.8423 -2.50666 0
    endloop
  endfacet
  facet normal 0 0 -1
    outer loop
      vertex 19.3717 -4.9738 0
      vertex 19.3717 4.9738 0
      vertex 19.8423 2.50666 0
    endloop
  endfacet
  facet normal 0 0 -1
    outer loop
      vertex 18.5955 -7.36249 0
      vertex 19.3717 4.9738 0
      vertex 19.3717 -4.9738 0
    endloop
  endfacet
  facet normal 0 0 -1
    outer loop
      vertex 18.5955 -7.36249 0
      vertex 18.5955 7.36249 0
      vertex 19.3717 4.9738 0
    endloop
  endfacet
  facet normal 0 0 -1
    outer loop
      vertex 17.5261 -9.63507 0
      vertex 18.5955 7.36249 0
      vertex 18.5955 -7.36249 0
    endloop
  endfacet
  facet normal 0 0 -1
    outer loop
      vertex 17.5261 -9.63507 0
      vertex 17.5261 9.63507 0
      vertex 18.5955 7.36249 0
    endloop
  endfacet
  facet normal 0 0 -1
    outer loop
      vertex 16.1803 -11.7557 0
      vertex 17.5261 9.63507 0
      vertex 17.5261 -9.63507 0
    endloop
  endfacet
  facet normal 0 0 -1
    outer loop
      vertex 16.1803 -11.7557 0
      vertex 16.1803 11.7557 0
      vertex 17.5261 9.63507 0
    endloop
  endfacet
  facet normal 0 0 -1
    outer loop
      vertex 14.5794 -13.6909 0
      vertex 16.1803 11.7557 0
      vertex 16.1803 -11.7557 0
    endloop
  endfacet
  facet normal 0 0 -1
    outer loop
      vertex 14.5794 -13.6909 0
      vertex 14.5794 13.6909 0
      vertex 16.1803 11.7557 0
    endloop
  endfacet
  facet normal 0 0 -1
    outer loop
      vertex 12.7485 -15.4103 0
      vertex 14.5794 13.6909 0
      vertex 14.5794 -13.6909 0
    endloop
  endfacet
  facet normal 0 0 -1
    outer loop
      vertex 12.7485 -15.4103 0
      vertex 12.7485 15.4103 0
      vertex 14.5794 13.6909 0
    endloop
  endfacet
  facet normal 0 0 -1
    outer loop
      vertex 10.7165 -16.8866 0
      vertex 12.7485 15.4103 0
      vertex 12.7485 -15.4103 0
    endloop
  endfacet
  facet normal 0 0 -1
    outer loop
      vertex 10.7165 -16.8866 0
      vertex 10.7165 16.8866 0
      vertex 12.7485 15.4103 0
    endloop
  endfacet
  facet normal 0 0 -1
    outer loop
      vertex 8.51558 -18.0965 0
      vertex 10.7165 16.8866 0
      vertex 10.7165 -16.8866 0
    endloop
  endfacet
  facet normal 0 0 -1
    outer loop
      vertex 8.51558 -18.0965 0
      vertex 8.51558 18.0965 0
      vertex 10.7165 16.8866 0
    endloop
  endfacet
  facet normal 0 0 -1
    outer loop
      vertex 6.18034 -19.0211 0
      vertex 8.51558 18.0965 0
      vertex 8.51558 -18.0965 0
    endloop
  endfacet
  facet normal 0 0 -1
    outer loop
      vertex 6.18034 -19.0211 0
      vertex 6.18034 19.0211 0
      vertex 8.51558 18.0965 0
    endloop
  endfacet
  facet normal 0 0 -1
    outer loop
      vertex 3.74763 -19.6457 0
      vertex 6.18034 19.0211 0
      vertex 6.18034 -19.0211 0
    endloop
  endfacet
  facet normal 0 0 -1
    outer loop
      vertex 3.74763 -19.6457 0
      vertex 3.74763 19.6457 0
      vertex 6.18034 19.0211 0
    endloop
  endfacet
  facet normal 0 0 -1
    outer loop
      vertex 1.25581 -19.9605 0
      vertex 3.74763 19.6457 0
      vertex 3.74763 -19.6457 0
    endloop
  endfacet
  facet normal 0 0 -1
    outer loop
      vertex 1.25581 -19.9605 0
      vertex 1.25581 19.9605 0
      vertex 3.74763 19.6457 0
    endloop
  endfacet
  facet normal 0 0 -1
    outer loop
      vertex -1.25581 -19.9605 0
      vertex 1.25581 19.9605 0
      vertex 1.25581 -19.9605 0
    endloop
  endfacet
  facet normal 0 0 -1
    outer loop
      vertex -1.25581 -19.9605 0
      vertex -1.25581 19.9605 0
      vertex 1.25581 19.9605 0
    endloop
  endfacet
  facet normal 0 0 -1
    outer loop
      vertex -3.74763 -19.6457 0
      vertex -1.25581 19.9605 0
      vertex -1.25581 -19.9605 0
    endloop
  endfacet
  facet normal 0 0 -1
    outer loop
      vertex -3.74763 -19.6457 0
      vertex -3.74763 19.6457 0
      vertex -1.25581 19.9605 0
    endloop
  endfacet
  facet normal 0 0 -1
    outer loop
      vertex -6.18034 -19.0211 0
      vertex -3.74763 19.6457 0
      vertex -3.74763 -19.6457 0
    endloop
  endfacet
  facet normal 0 0 -1
    outer loop
      vertex -6.18034 -19.0211 0
      vertex -6.18034 19.0211 0
      vertex -3.74763 19.6457 0
    endloop
  endfacet
  facet normal 0 0 -1
    outer loop
      vertex -8.51558 -18.0965 0
      vertex -6.18034 19.0211 0
      vertex -6.18034 -19.0211 0
    endloop
  endfacet
  facet normal 0 0 -1
    outer loop
      vertex -8.51558 -18.0965 0
      vertex -8.51558 18.0965 0
      vertex -6.18034 19.0211 0
    endloop
  endfacet
  facet normal 0 0 -1
    outer loop
      vertex -10.7165 -16.8866 0
      vertex -8.51558 18.0965 0
      vertex -8.51558 -18.0965 0
    endloop
  endfacet
  facet normal 0 0 -1
    outer loop
      vertex -10.7165 -16.8866 0
      vertex -10.7165 16.8866 0
      vertex -8.51558 18.0965 0
    endloop
  endfacet
  facet normal 0 0 -1
    outer loop
      vertex -12.7485 -15.4103 0
      vertex -10.7165 16.8866 0
      vertex -10.7165 -16.8866 0
    endloop
  endfacet
  facet normal 0 0 -1
    outer loop
      vertex -12.7485 -15.4103 0
      vertex -12.7485 15.4103 0
      vertex -10.7165 16.8866 0
    endloop
  endfacet
  facet normal 0 0 -1
    outer loop
      vertex -14.5794 -13.6909 0
      vertex -12.7485 15.4103 0
      vertex -12.7485 -15.4103 0
    endloop
  endfacet
  facet normal 0 0 -1
    outer loop
      vertex -14.5794 -13.6909 0
      vertex -14.5794 13.6909 0
      vertex -12.7485 15.4103 0
    endloop
  endfacet
  facet normal 0 0 -1
    outer loop
      vertex -16.1803 -11.7557 0
      vertex -14.5794 13.6909 0
      vertex -14.5794 -13.6909 0
    endloop
  endfacet
  facet normal 0 0 -1
    outer loop
      vertex -16.1803 -11.7557 0
      vertex -16.1803 11.7557 0
      vertex -14.5794 13.6909 0
    endloop
  endfacet
  facet normal 0 0 -1
    outer loop
      vertex -17.5261 -9.63507 0
      vertex -16.1803 11.7557 0
      vertex -16.1803 -11.7557 0
    endloop
  endfacet
  facet normal 0 0 -1
    outer loop
      vertex -17.5261 -9.63507 0
      vertex -17.5261 9.63507 0
      vertex -16.1803 11.7557 0
    endloop
  endfacet
  facet normal 0 0 -1
    outer loop
      vertex -18.5955 -7.36249 0
      vertex -17.5261 9.63507 0
      vertex -17.5261 -9.63507 0
    endloop
  endfacet
  facet normal 0 0 -1
    outer loop
      vertex -18.5955 -7.36249 0
      vertex -18.5955 7.36249 0
      vertex -17.5261 9.63507 0
    endloop
  endfacet
  facet normal 0 0 -1
    outer loop
      vertex -19.3717 -4.9738 0
      vertex -18.5955 7.36249 0
      vertex -18.5955 -7.36249 0
    endloop
  endfacet
  facet normal 0 0 -1
    outer loop
      vertex -19.3717 -4.9738 0
      vertex -19.3717 4.9738 0
      vertex -18.5955 7.36249 0
    endloop
  endfacet
  facet normal 0 0 -1
    outer loop
      vertex -19.8423 -2.50666 0
      vertex -19.3717 4.9738 0
      vertex -19.3717 -4.9738 0
    endloop
  endfacet
  facet normal 0 0 -1
    outer loop
      vertex -19.8423 -2.50666 0
      vertex -19.8423 2.50666 0
      vertex -19.3717 4.9738 0
    endloop
  endfacet
  facet normal 0 -0 -1
    outer loop
      vertex -19.8423 2.50666 0
      vertex -19.8423 -2.50666 0
      vertex -20 0 0
    endloop
  endfacet
  facet normal -0.684562 0.728955 0
    outer loop
      vertex -12.7485 15.4103 0
      vertex -14.5794 13.6909 10
      vertex -12.7485 15.4103 10
    endloop
  endfacet
  facet normal -0.684562 0.728955 0
    outer loop
      vertex -14.5794 13.6909 10
      vertex -12.7485 15.4103 0
      vertex -14.5794 13.6909 0
    endloop
  endfacet
  facet normal 0.368129 -0.929775 0
    outer loop
      vertex 6.18034 -19.0211 0
      vertex 8.51558 -18.0965 10
      vertex 6.18034 -19.0211 10
    endloop
  endfacet
  facet normal 0.368129 -0.929775 0
    outer loop
      vertex 8.51558 -18.0965 10
      vertex 6.18034 -19.0211 0
      vertex 8.51558 -18.0965 0
    endloop
  endfacet
  facet normal -0.587776 0.809024 0
    outer loop
      vertex -10.7165 16.8866 0
      vertex -12.7485 15.4103 10
      vertex -10.7165 16.8866 10
    endloop
  endfacet
  facet normal -0.587776 0.809024 0
    outer loop
      vertex -12.7485 15.4103 10
      vertex -10.7165 16.8866 0
      vertex -12.7485 15.4103 0
    endloop
  endfacet
  facet normal -0.951049 0.309041 0
    outer loop
      vertex -19.3717 4.9738 0
      vertex -18.5955 7.36249 10
      vertex -18.5955 7.36249 0
    endloop
  endfacet
  facet normal -0.951049 0.309041 0
    outer loop
      vertex -18.5955 7.36249 10
      vertex -19.3717 4.9738 0
      vertex -19.3717 4.9738 10
    endloop
  endfacet
  facet normal -0.98229 0.187369 0
    outer loop
      vertex -19.8423 2.50666 0
      vertex -19.3717 4.9738 10
      vertex -19.3717 4.9738 0
    endloop
  endfacet
  facet normal -0.98229 0.187369 0
    outer loop
      vertex -19.3717 4.9738 10
      vertex -19.8423 2.50666 0
      vertex -19.8423 2.50666 10
    endloop
  endfacet
  facet normal -0.98229 -0.187369 0
    outer loop
      vertex -19.3717 -4.9738 0
      vertex -19.8423 -2.50666 10
      vertex -19.8423 -2.50666 0
    endloop
  endfacet
  facet normal -0.98229 -0.187369 0
    outer loop
      vertex -19.8423 -2.50666 10
      vertex -19.3717 -4.9738 0
      vertex -19.3717 -4.9738 10
    endloop
  endfacet
  facet normal -0.125337 0.992114 0
    outer loop
      vertex -1.25581 19.9605 0
      vertex -3.74763 19.6457 10
      vertex -1.25581 19.9605 10
    endloop
  endfacet
  facet normal -0.125337 0.992114 0
    outer loop
      vertex -3.74763 19.6457 10
      vertex -1.25581 19.9605 0
      vertex -3.74763 19.6457 0
    endloop
  endfacet
  facet normal -0.998027 -0.0627883 0
    outer loop
      vertex -19.8423 -2.50666 0
      vertex -20 0 10
      vertex -20 0 0
    endloop
  endfacet
  facet normal -0.998027 -0.0627883 0
    outer loop
      vertex -20 0 10
      vertex -19.8423 -2.50666 0
      vertex -19.8423 -2.50666 10
    endloop
  endfacet
  facet normal -0.998027 0.0627883 0
    outer loop
      vertex -20 0 0
      vertex -19.8423 2.50666 10
      vertex -19.8423 2.50666 0
    endloop
  endfacet
  facet normal -0.998027 0.0627883 0
    outer loop
      vertex -19.8423 2.50666 10
      vertex -20 0 0
      vertex -20 0 10
    endloop
  endfacet
  facet normal -0.684562 -0.728955 0
    outer loop
      vertex -14.5794 -13.6909 0
      vertex -12.7485 -15.4103 10
      vertex -14.5794 -13.6909 10
    endloop
  endfacet
  facet normal -0.684562 -0.728955 -0
    outer loop
      vertex -12.7485 -15.4103 10
      vertex -14.5794 -13.6909 0
      vertex -12.7485 -15.4103 0
    endloop
  endfacet
  facet normal -0.904826 -0.425781 0
    outer loop
      vertex -17.5261 -9.63507 0
      vertex -18.5955 -7.36249 10
      vertex -18.5955 -7.36249 0
    endloop
  endfacet
  facet normal -0.904826 -0.425781 0
    outer loop
      vertex -18.5955 -7.36249 10
      vertex -17.5261 -9.63507 0
      vertex -17.5261 -9.63507 10
    endloop
  endfacet
  facet normal 0.904826 -0.425781 0
    outer loop
      vertex 17.5261 -9.63507 10
      vertex 18.5955 -7.36249 0
      vertex 18.5955 -7.36249 10
    endloop
  endfacet
  facet normal 0.904826 -0.425781 0
    outer loop
      vertex 18.5955 -7.36249 0
      vertex 17.5261 -9.63507 10
      vertex 17.5261 -9.63507 0
    endloop
  endfacet
  facet normal -0.248685 -0.968584 0
    outer loop
      vertex -6.18034 -19.0211 0
      vertex -3.74763 -19.6457 10
      vertex -6.18034 -19.0211 10
    endloop
  endfacet
  facet normal -0.248685 -0.968584 -0
    outer loop
      vertex -3.74763 -19.6457 10
      vertex -6.18034 -19.0211 0
      vertex -3.74763 -19.6457 0
    endloop
  endfacet
  facet normal -0.982287 -0.187384 0
    outer loop
      vertex -9.68583 -2.4869 10
      vertex -9.92115 -1.25333 15
      vertex -9.92115 -1.25333 10
    endloop
  endfacet
  facet normal -0.982287 -0.187384 0
    outer loop
      vertex -9.92115 -1.25333 15
      vertex -9.68583 -2.4869 10
      vertex -9.68583 -2.4869 15
    endloop
  endfacet
  facet normal -0.684545 -0.728971 0
    outer loop
      vertex -7.28969 -6.84547 10
      vertex -6.37424 -7.70513 15
      vertex -7.28969 -6.84547 15
    endloop
  endfacet
  facet normal -0.684545 -0.728971 -0
    outer loop
      vertex -6.37424 -7.70513 15
      vertex -7.28969 -6.84547 10
      vertex -6.37424 -7.70513 10
    endloop
  endfacet
  facet normal 0.982287 0.187384 0
    outer loop
      vertex 9.92115 1.25333 15
      vertex 9.68583 2.4869 10
      vertex 9.68583 2.4869 15
    endloop
  endfacet
  facet normal 0.982287 0.187384 0
    outer loop
      vertex 9.68583 2.4869 10
      vertex 9.92115 1.25333 15
      vertex 9.92115 1.25333 10
    endloop
  endfacet
  facet normal 0.998027 0.0627883 0
    outer loop
      vertex 10 0 15
      vertex 9.92115 1.25333 10
      vertex 9.92115 1.25333 15
    endloop
  endfacet
  facet normal 0.998027 0.0627883 0
    outer loop
      vertex 9.92115 1.25333 10
      vertex 10 0 15
      vertex 10 0 10
    endloop
  endfacet
  facet normal 0.951055 0.309021 0
    outer loop
      vertex 9.68583 2.4869 15
      vertex 9.29776 3.68124 10
      vertex 9.29776 3.68124 15
    endloop
  endfacet
  facet normal 0.951055 0.309021 0
    outer loop
      vertex 9.29776 3.68124 10
      vertex 9.68583 2.4869 15
      vertex 9.68583 2.4869 10
    endloop
  endfacet
  facet normal 0.248691 0.968583 -0
    outer loop
      vertex 3.09017 9.51056 10
      vertex 1.87381 9.82287 15
      vertex 3.09017 9.51056 15
    endloop
  endfacet
  facet normal 0.248691 0.968583 0
    outer loop
      vertex 1.87381 9.82287 15
      vertex 3.09017 9.51056 10
      vertex 1.87381 9.82287 10
    endloop
  endfacet
  facet normal 0.368122 0.929777 -0
    outer loop
      vertex 4.25779 9.04827 10
      vertex 3.09017 9.51056 15
      vertex 4.25779 9.04827 15
    endloop
  endfacet
  facet normal 0.368122 0.929777 0
    outer loop
      vertex 3.09017 9.51056 15
      vertex 4.25779 9.04827 10
      vertex 3.09017 9.51056 10
    endloop
  endfacet
  facet normal 0.904831 -0.425771 0
    outer loop
      vertex 8.76307 -4.81754 15
      vertex 9.29776 -3.68124 10
      vertex 9.29776 -3.68124 15
    endloop
  endfacet
  facet normal 0.904831 -0.425771 0
    outer loop
      vertex 9.29776 -3.68124 10
      vertex 8.76307 -4.81754 15
      vertex 8.76307 -4.81754 10
    endloop
  endfacet
  facet normal -0.481751 -0.876308 0
    outer loop
      vertex -5.35827 -8.44328 10
      vertex -4.25779 -9.04827 15
      vertex -5.35827 -8.44328 15
    endloop
  endfacet
  facet normal -0.481751 -0.876308 -0
    outer loop
      vertex -4.25779 -9.04827 15
      vertex -5.35827 -8.44328 10
      vertex -4.25779 -9.04827 10
    endloop
  endfacet
  facet normal 0.248691 -0.968583 0
    outer loop
      vertex 1.87381 -9.82287 10
      vertex 3.09017 -9.51056 15
      vertex 1.87381 -9.82287 15
    endloop
  endfacet
  facet normal 0.248691 -0.968583 0
    outer loop
      vertex 3.09017 -9.51056 15
      vertex 1.87381 -9.82287 10
      vertex 3.09017 -9.51056 10
    endloop
  endfacet
  facet normal 0.844325 0.535831 0
    outer loop
      vertex 8.76307 4.81754 15
      vertex 8.09017 5.87785 10
      vertex 8.09017 5.87785 15
    endloop
  endfacet
  facet normal 0.844325 0.535831 0
    outer loop
      vertex 8.09017 5.87785 10
      vertex 8.76307 4.81754 15
      vertex 8.76307 4.81754 10
    endloop
  endfacet
  facet normal 0.904831 0.425771 0
    outer loop
      vertex 9.29776 3.68124 15
      vertex 8.76307 4.81754 10
      vertex 8.76307 4.81754 15
    endloop
  endfacet
  facet normal 0.904831 0.425771 0
    outer loop
      vertex 8.76307 4.81754 10
      vertex 9.29776 3.68124 15
      vertex 9.29776 3.68124 10
    endloop
  endfacet
  facet normal -0.125338 0.992114 0
    outer loop
      vertex -0.627905 9.98027 10
      vertex -1.87381 9.82287 15
      vertex -0.627905 9.98027 15
    endloop
  endfacet
  facet normal -0.125338 0.992114 0
    outer loop
      vertex -1.87381 9.82287 15
      vertex -0.627905 9.98027 10
      vertex -1.87381 9.82287 10
    endloop
  endfacet
  facet normal 0.951055 -0.309021 0
    outer loop
      vertex 9.29776 -3.68124 15
      vertex 9.68583 -2.4869 10
      vertex 9.68583 -2.4869 15
    endloop
  endfacet
  facet normal 0.951055 -0.309021 0
    outer loop
      vertex 9.68583 -2.4869 10
      vertex 9.29776 -3.68124 15
      vertex 9.29776 -3.68124 10
    endloop
  endfacet
  facet normal -0.684545 0.728971 0
    outer loop
      vertex -6.37424 7.70513 10
      vertex -7.28969 6.84547 15
      vertex -6.37424 7.70513 15
    endloop
  endfacet
  facet normal -0.684545 0.728971 0
    outer loop
      vertex -7.28969 6.84547 15
      vertex -6.37424 7.70513 10
      vertex -7.28969 6.84547 10
    endloop
  endfacet
  facet normal -0.951055 0.309021 0
    outer loop
      vertex -9.68583 2.4869 10
      vertex -9.29776 3.68124 15
      vertex -9.29776 3.68124 10
    endloop
  endfacet
  facet normal -0.951055 0.309021 0
    outer loop
      vertex -9.29776 3.68124 15
      vertex -9.68583 2.4869 10
      vertex -9.68583 2.4869 15
    endloop
  endfacet
  facet normal -0.998027 -0.0627883 0
    outer loop
      vertex -9.92115 -1.25333 10
      vertex -10 0 15
      vertex -10 0 10
    endloop
  endfacet
  facet normal -0.998027 -0.0627883 0
    outer loop
      vertex -10 0 15
      vertex -9.92115 -1.25333 10
      vertex -9.92115 -1.25333 15
    endloop
  endfacet
  facet normal 0.844325 -0.535831 0
    outer loop
      vertex 8.09017 -5.87785 15
      vertex 8.76307 -4.81754 10
      vertex 8.76307 -4.81754 15
    endloop
  endfacet
  facet normal 0.844325 -0.535831 0
    outer loop
      vertex 8.76307 -4.81754 10
      vertex 8.09017 -5.87785 15
      vertex 8.09017 -5.87785 10
    endloop
  endfacet
  facet normal 0.125338 -0.992114 0
    outer loop
      vertex 0.627905 -9.98027 10
      vertex 1.87381 -9.82287 15
      vertex 0.627905 -9.98027 15
    endloop
  endfacet
  facet normal 0.125338 -0.992114 0
    outer loop
      vertex 1.87381 -9.82287 15
      vertex 0.627905 -9.98027 10
      vertex 1.87381 -9.82287 10
    endloop
  endfacet
  facet normal 0.998027 -0.0627883 0
    outer loop
      vertex 9.92115 -1.25333 15
      vertex 10 0 10
      vertex 10 0 15
    endloop
  endfacet
  facet normal 0.998027 -0.0627883 0
    outer loop
      vertex 10 0 10
      vertex 9.92115 -1.25333 15
      vertex 9.92115 -1.25333 10
    endloop
  endfacet
  facet normal 0.684545 0.728971 -0
    outer loop
      vertex 7.28969 6.84547 10
      vertex 6.37424 7.70513 15
      vertex 7.28969 6.84547 15
    endloop
  endfacet
  facet normal 0.684545 0.728971 0
    outer loop
      vertex 6.37424 7.70513 15
      vertex 7.28969 6.84547 10
      vertex 6.37424 7.70513 10
    endloop
  endfacet
  facet normal -0.248691 -0.968583 0
    outer loop
      vertex -3.09017 -9.51056 10
      vertex -1.87381 -9.82287 15
      vertex -3.09017 -9.51056 15
    endloop
  endfacet
  facet normal -0.248691 -0.968583 -0
    outer loop
      vertex -1.87381 -9.82287 15
      vertex -3.09017 -9.51056 10
      vertex -1.87381 -9.82287 10
    endloop
  endfacet
  facet normal -0.844325 -0.535831 0
    outer loop
      vertex -8.09017 -5.87785 10
      vertex -8.76307 -4.81754 15
      vertex -8.76307 -4.81754 10
    endloop
  endfacet
  facet normal -0.844325 -0.535831 0
    outer loop
      vertex -8.76307 -4.81754 15
      vertex -8.09017 -5.87785 10
      vertex -8.09017 -5.87785 15
    endloop
  endfacet
  facet normal -0.998027 0.0627883 0
    outer loop
      vertex -10 0 10
      vertex -9.92115 1.25333 15
      vertex -9.92115 1.25333 10
    endloop
  endfacet
  facet normal -0.998027 0.0627883 0
    outer loop
      vertex -9.92115 1.25333 15
      vertex -10 0 10
      vertex -10 0 15
    endloop
  endfacet
  facet normal -0.844325 0.535831 0
    outer loop
      vertex -8.76307 4.81754 10
      vertex -8.09017 5.87785 15
      vertex -8.09017 5.87785 10
    endloop
  endfacet
  facet normal -0.844325 0.535831 0
    outer loop
      vertex -8.09017 5.87785 15
      vertex -8.76307 4.81754 10
      vertex -8.76307 4.81754 15
    endloop
  endfacet
  facet normal 0.481751 -0.876308 0
    outer loop
      vertex 4.25779 -9.04827 10
      vertex 5.35827 -8.44328 15
      vertex 4.25779 -9.04827 15
    endloop
  endfacet
  facet normal 0.481751 -0.876308 0
    outer loop
      vertex 5.35827 -8.44328 15
      vertex 4.25779 -9.04827 10
      vertex 5.35827 -8.44328 10
    endloop
  endfacet
  facet normal -0.481751 0.876308 0
    outer loop
      vertex -4.25779 9.04827 10
      vertex -5.35827 8.44328 15
      vertex -4.25779 9.04827 15
    endloop
  endfacet
  facet normal -0.481751 0.876308 0
    outer loop
      vertex -5.35827 8.44328 15
      vertex -4.25779 9.04827 10
      vertex -5.35827 8.44328 10
    endloop
  endfacet
  facet normal 0.368122 -0.929777 0
    outer loop
      vertex 3.09017 -9.51056 10
      vertex 4.25779 -9.04827 15
      vertex 3.09017 -9.51056 15
    endloop
  endfacet
  facet normal 0.368122 -0.929777 0
    outer loop
      vertex 4.25779 -9.04827 15
      vertex 3.09017 -9.51056 10
      vertex 4.25779 -9.04827 10
    endloop
  endfacet
  facet normal 0.982287 -0.187384 0
    outer loop
      vertex 9.68583 -2.4869 15
      vertex 9.92115 -1.25333 10
      vertex 9.92115 -1.25333 15
    endloop
  endfacet
  facet normal 0.982287 -0.187384 0
    outer loop
      vertex 9.92115 -1.25333 10
      vertex 9.68583 -2.4869 15
      vertex 9.68583 -2.4869 10
    endloop
  endfacet
  facet normal -0.904831 0.425771 0
    outer loop
      vertex -9.29776 3.68124 10
      vertex -8.76307 4.81754 15
      vertex -8.76307 4.81754 10
    endloop
  endfacet
  facet normal -0.904831 0.425771 0
    outer loop
      vertex -8.76307 4.81754 15
      vertex -9.29776 3.68124 10
      vertex -9.29776 3.68124 15
    endloop
  endfacet
  facet normal 0 1 -0
    outer loop
      vertex 0.627905 9.98027 10
      vertex -0.627905 9.98027 15
      vertex 0.627905 9.98027 15
    endloop
  endfacet
  facet normal 0 1 0
    outer loop
      vertex -0.627905 9.98027 15
      vertex 0.627905 9.98027 10
      vertex -0.627905 9.98027 10
    endloop
  endfacet
  facet normal 0.770515 -0.637422 0
    outer loop
      vertex 7.28969 -6.84547 15
      vertex 8.09017 -5.87785 10
      vertex 8.09017 -5.87785 15
    endloop
  endfacet
  facet normal 0.770515 -0.637422 0
    outer loop
      vertex 8.09017 -5.87785 10
      vertex 7.28969 -6.84547 15
      vertex 7.28969 -6.84547 10
    endloop
  endfacet
  facet normal -0.368122 0.929777 0
    outer loop
      vertex -3.09017 9.51056 10
      vertex -4.25779 9.04827 15
      vertex -3.09017 9.51056 15
    endloop
  endfacet
  facet normal -0.368122 0.929777 0
    outer loop
      vertex -4.25779 9.04827 15
      vertex -3.09017 9.51056 10
      vertex -4.25779 9.04827 10
    endloop
  endfacet
  facet normal -0.982287 0.187384 0
    outer loop
      vertex -9.92115 1.25333 10
      vertex -9.68583 2.4869 15
      vertex -9.68583 2.4869 10
    endloop
  endfacet
  facet normal -0.982287 0.187384 0
    outer loop
      vertex -9.68583 2.4869 15
      vertex -9.92115 1.25333 10
      vertex -9.92115 1.25333 15
    endloop
  endfacet
  facet normal 0.125338 0.992114 -0
    outer loop
      vertex 1.87381 9.82287 10
      vertex 0.627905 9.98027 15
      vertex 1.87381 9.82287 15
    endloop
  endfacet
  facet normal 0.125338 0.992114 0
    outer loop
      vertex 0.627905 9.98027 15
      vertex 1.87381 9.82287 10
      vertex 0.627905 9.98027 10
    endloop
  endfacet
  facet normal -0.587788 -0.809015 0
    outer loop
      vertex -6.37424 -7.70513 10
      vertex -5.35827 -8.44328 15
      vertex -6.37424 -7.70513 15
    endloop
  endfacet
  facet normal -0.587788 -0.809015 -0
    outer loop
      vertex -5.35827 -8.44328 15
      vertex -6.37424 -7.70513 10
      vertex -5.35827 -8.44328 10
    endloop
  endfacet
  facet normal 0.481751 0.876308 -0
    outer loop
      vertex 5.35827 8.44328 10
      vertex 4.25779 9.04827 15
      vertex 5.35827 8.44328 15
    endloop
  endfacet
  facet normal 0.481751 0.876308 0
    outer loop
      vertex 4.25779 9.04827 15
      vertex 5.35827 8.44328 10
      vertex 4.25779 9.04827 10
    endloop
  endfacet
  facet normal -0.951055 -0.309021 0
    outer loop
      vertex -9.29776 -3.68124 10
      vertex -9.68583 -2.4869 15
      vertex -9.68583 -2.4869 10
    endloop
  endfacet
  facet normal -0.951055 -0.309021 0
    outer loop
      vertex -9.68583 -2.4869 15
      vertex -9.29776 -3.68124 10
      vertex -9.29776 -3.68124 15
    endloop
  endfacet
  facet normal -0.770515 0.637422 0
    outer loop
      vertex -8.09017 5.87785 10
      vertex -7.28969 6.84547 15
      vertex -7.28969 6.84547 10
    endloop
  endfacet
  facet normal -0.770515 0.637422 0
    outer loop
      vertex -7.28969 6.84547 15
      vertex -8.09017 5.87785 10
      vertex -8.09017 5.87785 15
    endloop
  endfacet
  facet normal -0.770515 -0.637422 0
    outer loop
      vertex -7.28969 -6.84547 10
      vertex -8.09017 -5.87785 15
      vertex -8.09017 -5.87785 10
    endloop
  endfacet
  facet normal -0.770515 -0.637422 0
    outer loop
      vertex -8.09017 -5.87785 15
      vertex -7.28969 -6.84547 10
      vertex -7.28969 -6.84547 15
    endloop
  endfacet
  facet normal 0.684545 -0.728971 0
    outer loop
      vertex 6.37424 -7.70513 10
      vertex 7.28969 -6.84547 15
      vertex 6.37424 -7.70513 15
    endloop
  endfacet
  facet normal 0.684545 -0.728971 0
    outer loop
      vertex 7.28969 -6.84547 15
      vertex 6.37424 -7.70513 10
      vertex 7.28969 -6.84547 10
    endloop
  endfacet
  facet normal 0 -1 0
    outer loop
      vertex -0.627905 -9.98027 10
      vertex 0.627905 -9.98027 15
      vertex -0.627905 -9.98027 15
    endloop
  endfacet
  facet normal 0 -1 -0
    outer loop
      vertex 0.627905 -9.98027 15
      vertex -0.627905 -9.98027 10
      vertex 0.627905 -9.98027 10
    endloop
  endfacet
  facet normal -0.125338 -0.992114 0
    outer loop
      vertex -1.87381 -9.82287 10
      vertex -0.627905 -9.98027 15
      vertex -1.87381 -9.82287 15
    endloop
  endfacet
  facet normal -0.125338 -0.992114 -0
    outer loop
      vertex -0.627905 -9.98027 15
      vertex -1.87381 -9.82287 10
      vertex -0.627905 -9.98027 10
    endloop
  endfacet
  facet normal -0.587788 0.809015 0
    outer loop
      vertex -5.35827 8.44328 10
      vertex -6.37424 7.70513 15
      vertex -5.35827 8.44328 15
    endloop
  endfacet
  facet normal -0.587788 0.809015 0
    outer loop
      vertex -6.37424 7.70513 15
      vertex -5.35827 8.44328 10
      vertex -6.37424 7.70513 10
    endloop
  endfacet
  facet normal 0.587788 0.809015 -0
    outer loop
      vertex 6.37424 7.70513 10
      vertex 5.35827 8.44328 15
      vertex 6.37424 7.70513 15
    endloop
  endfacet
  facet normal 0.587788 0.809015 0
    outer loop
      vertex 5.35827 8.44328 15
      vertex 6.37424 7.70513 10
      vertex 5.35827 8.44328 10
    endloop
  endfacet
  facet normal -0.248691 0.968583 0
    outer loop
      vertex -1.87381 9.82287 10
      vertex -3.09017 9.51056 15
      vertex -1.87381 9.82287 15
    endloop
  endfacet
  facet normal -0.248691 0.968583 0
    outer loop
      vertex -3.09017 9.51056 15
      vertex -1.87381 9.82287 10
      vertex -3.09017 9.51056 10
    endloop
  endfacet
  facet normal 0 0 1
    outer loop
      vertex 9.92115 1.25333 15
      vertex 9.92115 -1.25333 15
      vertex 10 0 15
    endloop
  endfacet
  facet normal 0 0 1
    outer loop
      vertex 9.68583 2.4869 15
      vertex 9.92115 -1.25333 15
      vertex 9.92115 1.25333 15
    endloop
  endfacet
  facet normal 0 0 1
    outer loop
      vertex 9.68583 2.4869 15
      vertex 9.68583 -2.4869 15
      vertex 9.92115 -1.25333 15
    endloop
  endfacet
  facet normal 0 0 1
    outer loop
      vertex 9.29776 3.68124 15
      vertex 9.68583 -2.4869 15
      vertex 9.68583 2.4869 15
    endloop
  endfacet
  facet normal 0 0 1
    outer loop
      vertex 9.29776 3.68124 15
      vertex 9.29776 -3.68124 15
      vertex 9.68583 -2.4869 15
    endloop
  endfacet
  facet normal 0 0 1
    outer loop
      vertex 8.76307 4.81754 15
      vertex 9.29776 -3.68124 15
      vertex 9.29776 3.68124 15
    endloop
  endfacet
  facet normal 0 0 1
    outer loop
      vertex 8.76307 4.81754 15
      vertex 8.76307 -4.81754 15
      vertex 9.29776 -3.68124 15
    endloop
  endfacet
  facet normal 0 0 1
    outer loop
      vertex 8.09017 5.87785 15
      vertex 8.76307 -4.81754 15
      vertex 8.76307 4.81754 15
    endloop
  endfacet
  facet normal 0 0 1
    outer loop
      vertex 8.09017 5.87785 15
      vertex 8.09017 -5.87785 15
      vertex 8.76307 -4.81754 15
    endloop
  endfacet
  facet normal 0 0 1
    outer loop
      vertex 7.28969 6.84547 15
      vertex 8.09017 -5.87785 15
      vertex 8.09017 5.87785 15
    endloop
  endfacet
  facet normal 0 0 1
    outer loop
      vertex 7.28969 6.84547 15
      vertex 7.28969 -6.84547 15
      vertex 8.09017 -5.87785 15
    endloop
  endfacet
  facet normal 0 0 1
    outer loop
      vertex 6.37424 7.70513 15
      vertex 7.28969 -6.84547 15
      vertex 7.28969 6.84547 15
    endloop
  endfacet
  facet normal 0 0 1
    outer loop
      vertex 6.37424 7.70513 15
      vertex 6.37424 -7.70513 15
      vertex 7.28969 -6.84547 15
    endloop
  endfacet
  facet normal 0 0 1
    outer loop
      vertex 5.35827 8.44328 15
      vertex 6.37424 -7.70513 15
      vertex 6.37424 7.70513 15
    endloop
  endfacet
  facet normal 0 0 1
    outer loop
      vertex 5.35827 8.44328 15
      vertex 5.35827 -8.44328 15
      vertex 6.37424 -7.70513 15
    endloop
  endfacet
  facet normal 0 0 1
    outer loop
      vertex 4.25779 9.04827 15
      vertex 5.35827 -8.44328 15
      vertex 5.35827 8.44328 15
    endloop
  endfacet
  facet normal 0 0 1
    outer loop
      vertex 4.25779 9.04827 15
      vertex 4.25779 -9.04827 15
      vertex 5.35827 -8.44328 15
    endloop
  endfacet
  facet normal 0 0 1
    outer loop
      vertex 3.09017 9.51056 15
      vertex 4.25779 -9.04827 15
      vertex 4.25779 9.04827 15
    endloop
  endfacet
  facet normal 0 0 1
    outer loop
      vertex 3.09017 9.51056 15
      vertex 3.09017 -9.51056 15
      vertex 4.25779 -9.04827 15
    endloop
  endfacet
  facet normal 0 0 1
    outer loop
      vertex 1.87381 9.82287 15
      vertex 3.09017 -9.51056 15
      vertex 3.09017 9.51056 15
    endloop
  endfacet
  facet normal 0 0 1
    outer loop
      vertex 1.87381 9.82287 15
      vertex 1.87381 -9.82287 15
      vertex 3.09017 -9.51056 15
    endloop
  endfacet
  facet normal 0 0 1
    outer loop
      vertex 0.627905 9.98027 15
      vertex 1.87381 -9.82287 15
      vertex 1.87381 9.82287 15
    endloop
  endfacet
  facet normal 0 0 1
    outer loop
      vertex 0.627905 9.98027 15
      vertex 0.627905 -9.98027 15
      vertex 1.87381 -9.82287 15
    endloop
  endfacet
  facet normal -0 0 1
    outer loop
      vertex -0.627905 9.98027 15
      vertex 0.627905 -9.98027 15
      vertex 0.627905 9.98027 15
    endloop
  endfacet
  facet normal 0 0 1
    outer loop
      vertex -0.627905 9.98027 15
      vertex -0.627905 -9.98027 15
      vertex 0.627905 -9.98027 15
    endloop
  endfacet
  facet normal -0 0 1
    outer loop
      vertex -1.87381 9.82287 15
      vertex -0.627905 -9.98027 15
      vertex -0.627905 9.98027 15
    endloop
  endfacet
  facet normal 0 0 1
    outer loop
      vertex -1.87381 9.82287 15
      vertex -1.87381 -9.82287 15
      vertex -0.627905 -9.98027 15
    endloop
  endfacet
  facet normal -0 0 1
    outer loop
      vertex -3.09017 9.51056 15
      vertex -1.87381 -9.82287 15
      vertex -1.87381 9.82287 15
    endloop
  endfacet
  facet normal 0 0 1
    outer loop
      vertex -3.09017 9.51056 15
      vertex -3.09017 -9.51056 15
      vertex -1.87381 -9.82287 15
    endloop
  endfacet
  facet normal -0 0 1
    outer loop
      vertex -4.25779 9.04827 15
      vertex -3.09017 -9.51056 15
      vertex -3.09017 9.51056 15
    endloop
  endfacet
  facet normal 0 0 1
    outer loop
      vertex -4.25779 9.04827 15
      vertex -4.25779 -9.04827 15
      vertex -3.09017 -9.51056 15
    endloop
  endfacet
  facet normal -0 0 1
    outer loop
      vertex -5.35827 8.44328 15
      vertex -4.25779 -9.04827 15
      vertex -4.25779 9.04827 15
    endloop
  endfacet
  facet normal 0 0 1
    outer loop
      vertex -5.35827 8.44328 15
      vertex -5.35827 -8.44328 15
      vertex -4.25779 -9.04827 15
    endloop
  endfacet
  facet normal -0 0 1
    outer loop
      vertex -6.37424 7.70513 15
      vertex -5.35827 -8.44328 15
      vertex -5.35827 8.44328 15
    endloop
  endfacet
  facet normal 0 0 1
    outer loop
      vertex -6.37424 7.70513 15
      vertex -6.37424 -7.70513 15
      vertex -5.35827 -8.44328 15
    endloop
  endfacet
  facet normal -0 0 1
    outer loop
      vertex -7.28969 6.84547 15
      vertex -6.37424 -7.70513 15
      vertex -6.37424 7.70513 15
    endloop
  endfacet
  facet normal 0 0 1
    outer loop
      vertex -7.28969 6.84547 15
      vertex -7.28969 -6.84547 15
      vertex -6.37424 -7.70513 15
    endloop
  endfacet
  facet normal -0 0 1
    outer loop
      vertex -8.09017 5.87785 15
      vertex -7.28969 -6.84547 15
      vertex -7.28969 6.84547 15
    endloop
  endfacet
  facet normal 0 0 1
    outer loop
      vertex -8.09017 5.87785 15
      vertex -8.09017 -5.87785 15
      vertex -7.28969 -6.84547 15
    endloop
  endfacet
  facet normal -0 0 1
    outer loop
      vertex -8.76307 4.81754 15
      vertex -8.09017 -5.87785 15
      vertex -8.09017 5.87785 15
    endloop
  endfacet
  facet normal 0 0 1
    outer loop
      vertex -8.76307 4.81754 15
      vertex -8.76307 -4.81754 15
      vertex -8.09017 -5.87785 15
    endloop
  endfacet
  facet normal -0 0 1
    outer loop
      vertex -9.29776 3.68124 15
      vertex -8.76307 -4.81754 15
      vertex -8.76307 4.81754 15
    endloop
  endfacet
  facet normal 0 0 1
    outer loop
      vertex -9.29776 3.68124 15
      vertex -9.29776 -3.68124 15
      vertex -8.76307 -4.81754 15
    endloop
  endfacet
  facet normal -0 0 1
    outer loop
      vertex -9.68583 2.4869 15
      vertex -9.29776 -3.68124 15
      vertex -9.29776 3.68124 15
    endloop
  endfacet
  facet normal 0 0 1
    outer loop
      vertex -9.68583 2.4869 15
      vertex -9.68583 -2.4869 15
      vertex -9.29776 -3.68124 15
    endloop
  endfacet
  facet normal -0 0 1
    outer loop
      vertex -9.92115 1.25333 15
      vertex -9.68583 -2.4869 15
      vertex -9.68583 2.4869 15
    endloop
  endfacet
  facet normal 0 0 1
    outer loop
      vertex -9.92115 1.25333 15
      vertex -9.92115 -1.25333 15
      vertex -9.68583 -2.4869 15
    endloop
  endfacet
  facet normal 0 -0 1
    outer loop
      vertex -9.92115 -1.25333 15
      vertex -9.92115 1.25333 15
      vertex -10 0 15
    endloop
  endfacet
  facet normal 0.770515 0.637422 0
    outer loop
      vertex 8.09017 5.87785 15
      vertex 7.28969 6.84547 10
      vertex 7.28969 6.84547 15
    endloop
  endfacet
  facet normal 0.770515 0.637422 0
    outer loop
      vertex 7.28969 6.84547 10
      vertex 8.09017 5.87785 15
      vertex 8.09017 5.87785 10
    endloop
  endfacet
  facet normal -0.904831 -0.425771 0
    outer loop
      vertex -8.76307 -4.81754 10
      vertex -9.29776 -3.68124 15
      vertex -9.29776 -3.68124 10
    endloop
  endfacet
  facet normal -0.904831 -0.425771 0
    outer loop
      vertex -9.29776 -3.68124 15
      vertex -8.76307 -4.81754 10
      vertex -8.76307 -4.81754 15
    endloop
  endfacet
  facet normal 0.587788 -0.809015 0
    outer loop
      vertex 5.35827 -8.44328 10
      vertex 6.37424 -7.70513 15
      vertex 5.35827 -8.44328 15
    endloop
  endfacet
  facet normal 0.587788 -0.809015 0
    outer loop
      vertex 6.37424 -7.70513 15
      vertex 5.35827 -8.44328 10
      vertex 6.37424 -7.70513 10
    endloop
  endfacet
  facet normal -0.368122 -0.929777 0
    outer loop
      vertex -4.25779 -9.04827 10
      vertex -3.09017 -9.51056 15
      vertex -4.25779 -9.04827 15
    endloop
  endfacet
  facet normal -0.368122 -0.929777 -0
    outer loop
      vertex -3.09017 -9.51056 15
      vertex -4.25779 -9.04827 10
      vertex -3.09017 -9.51056 10
    endloop
  endfacet
endsolid OpenSCAD_Model
