solid OpenSCAD_Model
  facet normal 0.98229 0.187369 0
    outer loop
      vertex 19.8423 2.50666 10
      vertex 19.3717 4.9738 0
      vertex 19.3717 4.9738 10
    endloop
  endfacet
  facet normal 0.98229 0.187369 0
    outer loop
      vertex 19.3717 4.9738 0
      vertex 19.8423 2.50666 10
      vertex 19.8423 2.50666 0
    endloop
  endfacet
  facet normal 0.998027 0.0627883 0
    outer loop
      vertex 20 0 10
      vertex 19.8423 2.50666 0
      vertex 19.8423 2.50666 10
    endloop
  endfacet
  facet normal 0.998027 0.0627883 0
    outer loop
      vertex 19.8423 2.50666 0
      vertex 20 0 10
      vertex 20 0 0
    endloop
  endfacet
  facet normal 0.951049 0.309041 0
    outer loop
      vertex 19.3717 4.9738 10
      vertex 18.5955 7.36249 0
      vertex 18.5955 7.36249 10
    endloop
  endfacet
  facet normal 0.951049 0.309041 0
    outer loop
      vertex 18.5955 7.36249 0
      vertex 19.3717 4.9738 10
      vertex 19.3717 4.9738 0
    endloop
  endfacet
  facet normal -0.904826 0.425781 0
    outer loop
      vertex -18.5955 7.36249 0
      vertex -17.5261 9.63507 10
      vertex -17.5261 9.63507 0
    endloop
  endfacet
  facet normal -0.904826 0.425781 0
    outer loop
      vertex -17.5261 9.63507 10
      vertex -18.5955 7.36249 0
      vertex -18.5955 7.36249 10
    endloop
  endfacet
  facet normal -0.951049 -0.309041 0
    outer loop
      vertex -18.5955 -7.36249 0
      vertex -19.3717 -4.9738 10
      vertex -19.3717 -4.9738 0
    endloop
  endfacet
  facet normal -0.951049 -0.309041 0
    outer loop
      vertex -19.3717 -4.9738 10
      vertex -18.5955 -7.36249 0
      vertex -18.5955 -7.36249 10
    endloop
  endfacet
  facet normal -0.481733 -0.876318 0
    outer loop
      vertex -10.7165 -16.8866 0
      vertex -8.51558 -18.0965 10
      vertex -10.7165 -16.8866 10
    endloop
  endfacet
  facet normal -0.481733 -0.876318 -0
    outer loop
      vertex -8.51558 -18.0965 10
      vertex -10.7165 -16.8866 0
      vertex -8.51558 -18.0965 0
    endloop
  endfacet
  facet normal 0.368129 0.929775 -0
    outer loop
      vertex 8.51558 18.0965 0
      vertex 6.18034 19.0211 10
      vertex 8.51558 18.0965 10
    endloop
  endfacet
  facet normal 0.368129 0.929775 0
    outer loop
      vertex 6.18034 19.0211 10
      vertex 8.51558 18.0965 0
      vertex 6.18034 19.0211 0
    endloop
  endfacet
  facet normal 0.844327 -0.535829 0
    outer loop
      vertex 16.1803 -11.7557 10
      vertex 17.5261 -9.63507 0
      vertex 17.5261 -9.63507 10
    endloop
  endfacet
  facet normal 0.844327 -0.535829 0
    outer loop
      vertex 17.5261 -9.63507 0
      vertex 16.1803 -11.7557 10
      vertex 16.1803 -11.7557 0
    endloop
  endfacet
  facet normal -0.368129 0.929775 0
    outer loop
      vertex -6.18034 19.0211 0
      vertex -8.51558 18.0965 10
      vertex -6.18034 19.0211 10
    endloop
  endfacet
  facet normal -0.368129 0.929775 0
    outer loop
      vertex -8.51558 18.0965 10
      vertex -6.18034 19.0211 0
      vertex -8.51558 18.0965 0
    endloop
  endfacet
  facet normal -0.844327 0.535829 0
    outer loop
      vertex -17.5261 9.63507 0
      vertex -16.1803 11.7557 10
      vertex -16.1803 11.7557 0
    endloop
  endfacet
  facet normal -0.844327 0.535829 0
    outer loop
      vertex -16.1803 11.7557 10
      vertex -17.5261 9.63507 0
      vertex -17.5261 9.63507 10
    endloop
  endfacet
  facet normal 0.248685 -0.968584 0
    outer loop
      vertex 3.74763 -19.6457 0
      vertex 6.18034 -19.0211 10
      vertex 3.74763 -19.6457 10
    endloop
  endfacet
  facet normal 0.248685 -0.968584 0
    outer loop
      vertex 6.18034 -19.0211 10
      vertex 3.74763 -19.6457 0
      vertex 6.18034 -19.0211 0
    endloop
  endfacet
  facet normal 0.904826 0.425781 0
    outer loop
      vertex 18.5955 7.36249 10
      vertex 17.5261 9.63507 0
      vertex 17.5261 9.63507 10
    endloop
  endfacet
  facet normal 0.904826 0.425781 0
    outer loop
      vertex 17.5261 9.63507 0
      vertex 18.5955 7.36249 10
      vertex 18.5955 7.36249 0
    endloop
  endfacet
  facet normal 0 0 1
    outer loop
      vertex 10.5 0 10
      vertex 20 0 10
      vertex 19.8423 2.50666 10
    endloop
  endfacet
  facet normal 0 0 1
    outer loop
      vertex 10.4172 1.316 10
      vertex 19.8423 2.50666 10
      vertex 19.3717 4.9738 10
    endloop
  endfacet
  facet normal 0 0 1
    outer loop
      vertex 20 0 10
      vertex 10.5 0 10
      vertex 19.8423 -2.50666 10
    endloop
  endfacet
  facet normal 0 0 1
    outer loop
      vertex 10.1701 2.61124 10
      vertex 19.3717 4.9738 10
      vertex 18.5955 7.36249 10
    endloop
  endfacet
  facet normal -0 0 1
    outer loop
      vertex 10.4172 -1.316 10
      vertex 19.8423 -2.50666 10
      vertex 10.5 0 10
    endloop
  endfacet
  facet normal 0 0 1
    outer loop
      vertex 9.76265 3.86531 10
      vertex 18.5955 7.36249 10
      vertex 17.5261 9.63507 10
    endloop
  endfacet
  facet normal 0 0 1
    outer loop
      vertex 19.8423 -2.50666 10
      vertex 10.4172 -1.316 10
      vertex 19.3717 -4.9738 10
    endloop
  endfacet
  facet normal 0 0 1
    outer loop
      vertex 9.20122 5.05841 10
      vertex 17.5261 9.63507 10
      vertex 16.1803 11.7557 10
    endloop
  endfacet
  facet normal -0 0 1
    outer loop
      vertex 10.1701 -2.61124 10
      vertex 19.3717 -4.9738 10
      vertex 10.4172 -1.316 10
    endloop
  endfacet
  facet normal 0 0 1
    outer loop
      vertex 8.49468 6.17174 10
      vertex 16.1803 11.7557 10
      vertex 14.5794 13.6909 10
    endloop
  endfacet
  facet normal 0 0 1
    outer loop
      vertex 19.3717 -4.9738 10
      vertex 10.1701 -2.61124 10
      vertex 18.5955 -7.36249 10
    endloop
  endfacet
  facet normal 0 0 1
    outer loop
      vertex 7.65417 7.18774 10
      vertex 14.5794 13.6909 10
      vertex 12.7485 15.4103 10
    endloop
  endfacet
  facet normal -0 0 1
    outer loop
      vertex 9.76265 -3.86531 10
      vertex 18.5955 -7.36249 10
      vertex 10.1701 -2.61124 10
    endloop
  endfacet
  facet normal 0 0 1
    outer loop
      vertex 6.69295 8.09039 10
      vertex 12.7485 15.4103 10
      vertex 10.7165 16.8866 10
    endloop
  endfacet
  facet normal 0 0 1
    outer loop
      vertex 18.5955 -7.36249 10
      vertex 9.76265 -3.86531 10
      vertex 17.5261 -9.63507 10
    endloop
  endfacet
  facet normal -0 0 1
    outer loop
      vertex 9.20122 -5.05841 10
      vertex 17.5261 -9.63507 10
      vertex 9.76265 -3.86531 10
    endloop
  endfacet
  facet normal 0 0 1
    outer loop
      vertex 19.8423 2.50666 10
      vertex 10.4172 1.316 10
      vertex 10.5 0 10
    endloop
  endfacet
  facet normal 0 0 1
    outer loop
      vertex 19.3717 4.9738 10
      vertex 10.1701 2.61124 10
      vertex 10.4172 1.316 10
    endloop
  endfacet
  facet normal 0 0 1
    outer loop
      vertex 18.5955 7.36249 10
      vertex 9.76265 3.86531 10
      vertex 10.1701 2.61124 10
    endloop
  endfacet
  facet normal 0 0 1
    outer loop
      vertex 17.5261 9.63507 10
      vertex 9.20122 5.05841 10
      vertex 9.76265 3.86531 10
    endloop
  endfacet
  facet normal 0 0 1
    outer loop
      vertex 5.62618 8.86544 10
      vertex 10.7165 16.8866 10
      vertex 8.51558 18.0965 10
    endloop
  endfacet
  facet normal 0 0 1
    outer loop
      vertex 16.1803 11.7557 10
      vertex 8.49468 6.17174 10
      vertex 9.20122 5.05841 10
    endloop
  endfacet
  facet normal 0 0 1
    outer loop
      vertex 14.5794 13.6909 10
      vertex 7.65417 7.18774 10
      vertex 8.49468 6.17174 10
    endloop
  endfacet
  facet normal 0 0 1
    outer loop
      vertex 12.7485 15.4103 10
      vertex 6.69295 8.09039 10
      vertex 7.65417 7.18774 10
    endloop
  endfacet
  facet normal 0 0 1
    outer loop
      vertex 4.47068 9.50068 10
      vertex 8.51558 18.0965 10
      vertex 6.18034 19.0211 10
    endloop
  endfacet
  facet normal 0 0 1
    outer loop
      vertex 10.7165 16.8866 10
      vertex 5.62618 8.86544 10
      vertex 6.69295 8.09039 10
    endloop
  endfacet
  facet normal 0 0 1
    outer loop
      vertex 8.51558 18.0965 10
      vertex 4.47068 9.50068 10
      vertex 5.62618 8.86544 10
    endloop
  endfacet
  facet normal 0 0 1
    outer loop
      vertex 3.24468 9.98609 10
      vertex 6.18034 19.0211 10
      vertex 3.74763 19.6457 10
    endloop
  endfacet
  facet normal 0 0 1
    outer loop
      vertex 6.18034 19.0211 10
      vertex 3.24468 9.98609 10
      vertex 4.47068 9.50068 10
    endloop
  endfacet
  facet normal 0 0 1
    outer loop
      vertex 3.74763 19.6457 10
      vertex 1.9675 10.314 10
      vertex 3.24468 9.98609 10
    endloop
  endfacet
  facet normal 0 0 1
    outer loop
      vertex 1.25581 19.9605 10
      vertex 1.9675 10.314 10
      vertex 3.74763 19.6457 10
    endloop
  endfacet
  facet normal 0 0 1
    outer loop
      vertex 1.25581 19.9605 10
      vertex 0.6593 10.4793 10
      vertex 1.9675 10.314 10
    endloop
  endfacet
  facet normal 0 0 1
    outer loop
      vertex 1.25581 19.9605 10
      vertex -0.6593 10.4793 10
      vertex 0.6593 10.4793 10
    endloop
  endfacet
  facet normal -0 0 1
    outer loop
      vertex -1.25581 19.9605 10
      vertex -0.6593 10.4793 10
      vertex 1.25581 19.9605 10
    endloop
  endfacet
  facet normal 0 0 1
    outer loop
      vertex -1.25581 19.9605 10
      vertex -1.9675 10.314 10
      vertex -0.6593 10.4793 10
    endloop
  endfacet
  facet normal -0 0 1
    outer loop
      vertex -3.74763 19.6457 10
      vertex -1.9675 10.314 10
      vertex -1.25581 19.9605 10
    endloop
  endfacet
  facet normal 0 0 1
    outer loop
      vertex -1.9675 10.314 10
      vertex -3.74763 19.6457 10
      vertex -3.24468 9.98609 10
    endloop
  endfacet
  facet normal -0 0 1
    outer loop
      vertex -6.18034 19.0211 10
      vertex -3.24468 9.98609 10
      vertex -3.74763 19.6457 10
    endloop
  endfacet
  facet normal 0 0 1
    outer loop
      vertex -3.24468 9.98609 10
      vertex -6.18034 19.0211 10
      vertex -4.47068 9.50068 10
    endloop
  endfacet
  facet normal -0 0 1
    outer loop
      vertex -8.51558 18.0965 10
      vertex -4.47068 9.50068 10
      vertex -6.18034 19.0211 10
    endloop
  endfacet
  facet normal 0 0 1
    outer loop
      vertex -4.47068 9.50068 10
      vertex -8.51558 18.0965 10
      vertex -5.62618 8.86544 10
    endloop
  endfacet
  facet normal -0 0 1
    outer loop
      vertex -10.7165 16.8866 10
      vertex -5.62618 8.86544 10
      vertex -8.51558 18.0965 10
    endloop
  endfacet
  facet normal 0 0 1
    outer loop
      vertex -5.62618 8.86544 10
      vertex -10.7165 16.8866 10
      vertex -6.69295 8.09039 10
    endloop
  endfacet
  facet normal -0 0 1
    outer loop
      vertex -12.7485 15.4103 10
      vertex -6.69295 8.09039 10
      vertex -10.7165 16.8866 10
    endloop
  endfacet
  facet normal 0 0 1
    outer loop
      vertex -6.69295 8.09039 10
      vertex -12.7485 15.4103 10
      vertex -7.65417 7.18774 10
    endloop
  endfacet
  facet normal -0 0 1
    outer loop
      vertex -14.5794 13.6909 10
      vertex -7.65417 7.18774 10
      vertex -12.7485 15.4103 10
    endloop
  endfacet
  facet normal 0 0 1
    outer loop
      vertex -7.65417 7.18774 10
      vertex -14.5794 13.6909 10
      vertex -8.49468 6.17174 10
    endloop
  endfacet
  facet normal -0 0 1
    outer loop
      vertex -16.1803 11.7557 10
      vertex -8.49468 6.17174 10
      vertex -14.5794 13.6909 10
    endloop
  endfacet
  facet normal -0 0 1
    outer loop
      vertex -17.5261 9.63507 10
      vertex -9.20122 5.05841 10
      vertex -16.1803 11.7557 10
    endloop
  endfacet
  facet normal 0 0 1
    outer loop
      vertex -8.49468 6.17174 10
      vertex -16.1803 11.7557 10
      vertex -9.20122 5.05841 10
    endloop
  endfacet
  facet normal 0 0 1
    outer loop
      vertex 17.5261 -9.63507 10
      vertex 9.20122 -5.05841 10
      vertex 16.1803 -11.7557 10
    endloop
  endfacet
  facet normal -0 0 1
    outer loop
      vertex 8.49468 -6.17174 10
      vertex 16.1803 -11.7557 10
      vertex 9.20122 -5.05841 10
    endloop
  endfacet
  facet normal 0 0 1
    outer loop
      vertex 16.1803 -11.7557 10
      vertex 8.49468 -6.17174 10
      vertex 14.5794 -13.6909 10
    endloop
  endfacet
  facet normal -0 0 1
    outer loop
      vertex 7.65417 -7.18774 10
      vertex 14.5794 -13.6909 10
      vertex 8.49468 -6.17174 10
    endloop
  endfacet
  facet normal 0 0 1
    outer loop
      vertex 14.5794 -13.6909 10
      vertex 7.65417 -7.18774 10
      vertex 12.7485 -15.4103 10
    endloop
  endfacet
  facet normal -0 0 1
    outer loop
      vertex 6.69295 -8.09039 10
      vertex 12.7485 -15.4103 10
      vertex 7.65417 -7.18774 10
    endloop
  endfacet
  facet normal 0 0 1
    outer loop
      vertex 12.7485 -15.4103 10
      vertex 6.69295 -8.09039 10
      vertex 10.7165 -16.8866 10
    endloop
  endfacet
  facet normal -0 0 1
    outer loop
      vertex 5.62618 -8.86544 10
      vertex 10.7165 -16.8866 10
      vertex 6.69295 -8.09039 10
    endloop
  endfacet
  facet normal 0 0 1
    outer loop
      vertex 10.7165 -16.8866 10
      vertex 5.62618 -8.86544 10
      vertex 8.51558 -18.0965 10
    endloop
  endfacet
  facet normal -0 0 1
    outer loop
      vertex 4.47068 -9.50068 10
      vertex 8.51558 -18.0965 10
      vertex 5.62618 -8.86544 10
    endloop
  endfacet
  facet normal 0 0 1
    outer loop
      vertex 8.51558 -18.0965 10
      vertex 4.47068 -9.50068 10
      vertex 6.18034 -19.0211 10
    endloop
  endfacet
  facet normal -0 0 1
    outer loop
      vertex 3.24468 -9.98609 10
      vertex 6.18034 -19.0211 10
      vertex 4.47068 -9.50068 10
    endloop
  endfacet
  facet normal 0 0 1
    outer loop
      vertex 6.18034 -19.0211 10
      vertex 3.24468 -9.98609 10
      vertex 3.74763 -19.6457 10
    endloop
  endfacet
  facet normal -0 0 1
    outer loop
      vertex 1.9675 -10.314 10
      vertex 3.74763 -19.6457 10
      vertex 3.24468 -9.98609 10
    endloop
  endfacet
  facet normal 0 0 1
    outer loop
      vertex 1.9675 -10.314 10
      vertex 1.25581 -19.9605 10
      vertex 3.74763 -19.6457 10
    endloop
  endfacet
  facet normal -0 0 1
    outer loop
      vertex 0.6593 -10.4793 10
      vertex 1.25581 -19.9605 10
      vertex 1.9675 -10.314 10
    endloop
  endfacet
  facet normal -0 0 1
    outer loop
      vertex -0.6593 -10.4793 10
      vertex 1.25581 -19.9605 10
      vertex 0.6593 -10.4793 10
    endloop
  endfacet
  facet normal 0 0 1
    outer loop
      vertex -0.6593 -10.4793 10
      vertex -1.25581 -19.9605 10
      vertex 1.25581 -19.9605 10
    endloop
  endfacet
  facet normal 0 0 1
    outer loop
      vertex -1.9675 -10.314 10
      vertex -1.25581 -19.9605 10
      vertex -0.6593 -10.4793 10
    endloop
  endfacet
  facet normal 0 0 1
    outer loop
      vertex -3.74763 -19.6457 10
      vertex -1.9675 -10.314 10
      vertex -3.24468 -9.98609 10
    endloop
  endfacet
  facet normal 0 0 1
    outer loop
      vertex -1.9675 -10.314 10
      vertex -3.74763 -19.6457 10
      vertex -1.25581 -19.9605 10
    endloop
  endfacet
  facet normal 0 0 1
    outer loop
      vertex -6.18034 -19.0211 10
      vertex -3.24468 -9.98609 10
      vertex -4.47068 -9.50068 10
    endloop
  endfacet
  facet normal 0 0 1
    outer loop
      vertex -8.51558 -18.0965 10
      vertex -4.47068 -9.50068 10
      vertex -5.62618 -8.86544 10
    endloop
  endfacet
  facet normal 0 0 1
    outer loop
      vertex -3.24468 -9.98609 10
      vertex -6.18034 -19.0211 10
      vertex -3.74763 -19.6457 10
    endloop
  endfacet
  facet normal 0 0 1
    outer loop
      vertex -10.7165 -16.8866 10
      vertex -5.62618 -8.86544 10
      vertex -6.69295 -8.09039 10
    endloop
  endfacet
  facet normal 0 0 1
    outer loop
      vertex -12.7485 -15.4103 10
      vertex -6.69295 -8.09039 10
      vertex -7.65417 -7.18774 10
    endloop
  endfacet
  facet normal 0 0 1
    outer loop
      vertex -14.5794 -13.6909 10
      vertex -7.65417 -7.18774 10
      vertex -8.49468 -6.17174 10
    endloop
  endfacet
  facet normal 0 0 1
    outer loop
      vertex -4.47068 -9.50068 10
      vertex -8.51558 -18.0965 10
      vertex -6.18034 -19.0211 10
    endloop
  endfacet
  facet normal 0 0 1
    outer loop
      vertex -16.1803 -11.7557 10
      vertex -8.49468 -6.17174 10
      vertex -9.20122 -5.05841 10
    endloop
  endfacet
  facet normal 0 0 1
    outer loop
      vertex -17.5261 -9.63507 10
      vertex -9.20122 -5.05841 10
      vertex -9.76265 -3.86531 10
    endloop
  endfacet
  facet normal 0 0 1
    outer loop
      vertex -18.5955 -7.36249 10
      vertex -9.76265 -3.86531 10
      vertex -10.1701 -2.61124 10
    endloop
  endfacet
  facet normal 0 0 1
    outer loop
      vertex -19.3717 -4.9738 10
      vertex -10.1701 -2.61124 10
      vertex -10.4172 -1.316 10
    endloop
  endfacet
  facet normal 0 0 1
    outer loop
      vertex -5.62618 -8.86544 10
      vertex -10.7165 -16.8866 10
      vertex -8.51558 -18.0965 10
    endloop
  endfacet
  facet normal 0 0 1
    outer loop
      vertex -19.8423 -2.50666 10
      vertex -10.4172 -1.316 10
      vertex -10.5 0 10
    endloop
  endfacet
  facet normal 0 0 1
    outer loop
      vertex -9.20122 5.05841 10
      vertex -17.5261 9.63507 10
      vertex -9.76265 3.86531 10
    endloop
  endfacet
  facet normal -0 0 1
    outer loop
      vertex -18.5955 7.36249 10
      vertex -9.76265 3.86531 10
      vertex -17.5261 9.63507 10
    endloop
  endfacet
  facet normal 0 0 1
    outer loop
      vertex -6.69295 -8.09039 10
      vertex -12.7485 -15.4103 10
      vertex -10.7165 -16.8866 10
    endloop
  endfacet
  facet normal 0 0 1
    outer loop
      vertex -9.76265 3.86531 10
      vertex -18.5955 7.36249 10
      vertex -10.1701 2.61124 10
    endloop
  endfacet
  facet normal 0 0 1
    outer loop
      vertex -7.65417 -7.18774 10
      vertex -14.5794 -13.6909 10
      vertex -12.7485 -15.4103 10
    endloop
  endfacet
  facet normal -0 0 1
    outer loop
      vertex -19.3717 4.9738 10
      vertex -10.1701 2.61124 10
      vertex -18.5955 7.36249 10
    endloop
  endfacet
  facet normal 0 0 1
    outer loop
      vertex -8.49468 -6.17174 10
      vertex -16.1803 -11.7557 10
      vertex -14.5794 -13.6909 10
    endloop
  endfacet
  facet normal 0 0 1
    outer loop
      vertex -10.1701 2.61124 10
      vertex -19.3717 4.9738 10
      vertex -10.4172 1.316 10
    endloop
  endfacet
  facet normal 0 0 1
    outer loop
      vertex -9.20122 -5.05841 10
      vertex -17.5261 -9.63507 10
      vertex -16.1803 -11.7557 10
    endloop
  endfacet
  facet normal -0 0 1
    outer loop
      vertex -19.8423 2.50666 10
      vertex -10.4172 1.316 10
      vertex -19.3717 4.9738 10
    endloop
  endfacet
  facet normal 0 0 1
    outer loop
      vertex -9.76265 -3.86531 10
      vertex -18.5955 -7.36249 10
      vertex -17.5261 -9.63507 10
    endloop
  endfacet
  facet normal 0 0 1
    outer loop
      vertex -10.4172 1.316 10
      vertex -19.8423 2.50666 10
      vertex -10.5 0 10
    endloop
  endfacet
  facet normal 0 0 1
    outer loop
      vertex -10.1701 -2.61124 10
      vertex -19.3717 -4.9738 10
      vertex -18.5955 -7.36249 10
    endloop
  endfacet
  facet normal 0 0 1
    outer loop
      vertex -20 0 10
      vertex -10.5 0 10
      vertex -19.8423 2.50666 10
    endloop
  endfacet
  facet normal 0 0 1
    outer loop
      vertex -10.4172 -1.316 10
      vertex -19.8423 -2.50666 10
      vertex -19.3717 -4.9738 10
    endloop
  endfacet
  facet normal 0 0 1
    outer loop
      vertex -10.5 0 10
      vertex -20 0 10
      vertex -19.8423 -2.50666 10
    endloop
  endfacet
  facet normal -0.368129 -0.929775 0
    outer loop
      vertex -8.51558 -18.0965 0
      vertex -6.18034 -19.0211 10
      vertex -8.51558 -18.0965 10
    endloop
  endfacet
  facet normal -0.368129 -0.929775 -0
    outer loop
      vertex -6.18034 -19.0211 10
      vertex -8.51558 -18.0965 0
      vertex -6.18034 -19.0211 0
    endloop
  endfacet
  facet normal 0.684562 -0.728955 0
    outer loop
      vertex 12.7485 -15.4103 0
      vertex 14.5794 -13.6909 10
      vertex 12.7485 -15.4103 10
    endloop
  endfacet
  facet normal 0.684562 -0.728955 0
    outer loop
      vertex 14.5794 -13.6909 10
      vertex 12.7485 -15.4103 0
      vertex 14.5794 -13.6909 0
    endloop
  endfacet
  facet normal 0.951049 -0.309041 0
    outer loop
      vertex 18.5955 -7.36249 10
      vertex 19.3717 -4.9738 0
      vertex 19.3717 -4.9738 10
    endloop
  endfacet
  facet normal 0.951049 -0.309041 0
    outer loop
      vertex 19.3717 -4.9738 0
      vertex 18.5955 -7.36249 10
      vertex 18.5955 -7.36249 0
    endloop
  endfacet
  facet normal 0.125337 -0.992114 0
    outer loop
      vertex 1.25581 -19.9605 0
      vertex 3.74763 -19.6457 10
      vertex 1.25581 -19.9605 10
    endloop
  endfacet
  facet normal 0.125337 -0.992114 0
    outer loop
      vertex 3.74763 -19.6457 10
      vertex 1.25581 -19.9605 0
      vertex 3.74763 -19.6457 0
    endloop
  endfacet
  facet normal 0.481733 -0.876318 0
    outer loop
      vertex 8.51558 -18.0965 0
      vertex 10.7165 -16.8866 10
      vertex 8.51558 -18.0965 10
    endloop
  endfacet
  facet normal 0.481733 -0.876318 0
    outer loop
      vertex 10.7165 -16.8866 10
      vertex 8.51558 -18.0965 0
      vertex 10.7165 -16.8866 0
    endloop
  endfacet
  facet normal -0.587776 -0.809024 0
    outer loop
      vertex -12.7485 -15.4103 0
      vertex -10.7165 -16.8866 10
      vertex -12.7485 -15.4103 10
    endloop
  endfacet
  facet normal -0.587776 -0.809024 -0
    outer loop
      vertex -10.7165 -16.8866 10
      vertex -12.7485 -15.4103 0
      vertex -10.7165 -16.8866 0
    endloop
  endfacet
  facet normal 0.248685 0.968584 -0
    outer loop
      vertex 6.18034 19.0211 0
      vertex 3.74763 19.6457 10
      vertex 6.18034 19.0211 10
    endloop
  endfacet
  facet normal 0.248685 0.968584 0
    outer loop
      vertex 3.74763 19.6457 10
      vertex 6.18034 19.0211 0
      vertex 3.74763 19.6457 0
    endloop
  endfacet
  facet normal 0.587776 0.809024 -0
    outer loop
      vertex 12.7485 15.4103 0
      vertex 10.7165 16.8866 10
      vertex 12.7485 15.4103 10
    endloop
  endfacet
  facet normal 0.587776 0.809024 0
    outer loop
      vertex 10.7165 16.8866 10
      vertex 12.7485 15.4103 0
      vertex 10.7165 16.8866 0
    endloop
  endfacet
  facet normal -0.125337 -0.992114 0
    outer loop
      vertex -3.74763 -19.6457 0
      vertex -1.25581 -19.9605 10
      vertex -3.74763 -19.6457 10
    endloop
  endfacet
  facet normal -0.125337 -0.992114 -0
    outer loop
      vertex -1.25581 -19.9605 10
      vertex -3.74763 -19.6457 0
      vertex -1.25581 -19.9605 0
    endloop
  endfacet
  facet normal 0.98229 -0.187369 0
    outer loop
      vertex 19.3717 -4.9738 10
      vertex 19.8423 -2.50666 0
      vertex 19.8423 -2.50666 10
    endloop
  endfacet
  facet normal 0.98229 -0.187369 0
    outer loop
      vertex 19.8423 -2.50666 0
      vertex 19.3717 -4.9738 10
      vertex 19.3717 -4.9738 0
    endloop
  endfacet
  facet normal 0.844327 0.535829 0
    outer loop
      vertex 17.5261 9.63507 10
      vertex 16.1803 11.7557 0
      vertex 16.1803 11.7557 10
    endloop
  endfacet
  facet normal 0.844327 0.535829 0
    outer loop
      vertex 16.1803 11.7557 0
      vertex 17.5261 9.63507 10
      vertex 17.5261 9.63507 0
    endloop
  endfacet
  facet normal -0.844327 -0.535829 0
    outer loop
      vertex -16.1803 -11.7557 0
      vertex -17.5261 -9.63507 10
      vertex -17.5261 -9.63507 0
    endloop
  endfacet
  facet normal -0.844327 -0.535829 0
    outer loop
      vertex -17.5261 -9.63507 10
      vertex -16.1803 -11.7557 0
      vertex -16.1803 -11.7557 10
    endloop
  endfacet
  facet normal -0.77052 0.637415 0
    outer loop
      vertex -16.1803 11.7557 0
      vertex -14.5794 13.6909 10
      vertex -14.5794 13.6909 0
    endloop
  endfacet
  facet normal -0.77052 0.637415 0
    outer loop
      vertex -14.5794 13.6909 10
      vertex -16.1803 11.7557 0
      vertex -16.1803 11.7557 10
    endloop
  endfacet
  facet normal 0.125337 0.992114 -0
    outer loop
      vertex 3.74763 19.6457 0
      vertex 1.25581 19.9605 10
      vertex 3.74763 19.6457 10
    endloop
  endfacet
  facet normal 0.125337 0.992114 0
    outer loop
      vertex 1.25581 19.9605 10
      vertex 3.74763 19.6457 0
      vertex 1.25581 19.9605 0
    endloop
  endfacet
  facet normal 0.684562 0.728955 -0
    outer loop
      vertex 14.5794 13.6909 0
      vertex 12.7485 15.4103 10
      vertex 14.5794 13.6909 10
    endloop
  endfacet
  facet normal 0.684562 0.728955 0
    outer loop
      vertex 12.7485 15.4103 10
      vertex 14.5794 13.6909 0
      vertex 12.7485 15.4103 0
    endloop
  endfacet
  facet normal -0.481733 0.876318 0
    outer loop
      vertex -8.51558 18.0965 0
      vertex -10.7165 16.8866 10
      vertex -8.51558 18.0965 10
    endloop
  endfacet
  facet normal -0.481733 0.876318 0
    outer loop
      vertex -10.7165 16.8866 10
      vertex -8.51558 18.0965 0
      vertex -10.7165 16.8866 0
    endloop
  endfacet
  facet normal 0.481733 0.876318 -0
    outer loop
      vertex 10.7165 16.8866 0
      vertex 8.51558 18.0965 10
      vertex 10.7165 16.8866 10
    endloop
  endfacet
  facet normal 0.481733 0.876318 0
    outer loop
      vertex 8.51558 18.0965 10
      vertex 10.7165 16.8866 0
      vertex 8.51558 18.0965 0
    endloop
  endfacet
  facet normal 0.77052 0.637415 0
    outer loop
      vertex 16.1803 11.7557 10
      vertex 14.5794 13.6909 0
      vertex 14.5794 13.6909 10
    endloop
  endfacet
  facet normal 0.77052 0.637415 0
    outer loop
      vertex 14.5794 13.6909 0
      vertex 16.1803 11.7557 10
      vertex 16.1803 11.7557 0
    endloop
  endfacet
  facet normal 0.998027 -0.0627883 0
    outer loop
      vertex 19.8423 -2.50666 10
      vertex 20 0 0
      vertex 20 0 10
    endloop
  endfacet
  facet normal 0.998027 -0.0627883 0
    outer loop
      vertex 20 0 0
      vertex 19.8423 -2.50666 10
      vertex 19.8423 -2.50666 0
    endloop
  endfacet
  facet normal -0.248685 0.968584 0
    outer loop
      vertex -3.74763 19.6457 0
      vertex -6.18034 19.0211 10
      vertex -3.74763 19.6457 10
    endloop
  endfacet
  facet normal -0.248685 0.968584 0
    outer loop
      vertex -6.18034 19.0211 10
      vertex -3.74763 19.6457 0
      vertex -6.18034 19.0211 0
    endloop
  endfacet
  facet normal 0.77052 -0.637415 0
    outer loop
      vertex 14.5794 -13.6909 10
      vertex 16.1803 -11.7557 0
      vertex 16.1803 -11.7557 10
    endloop
  endfacet
  facet normal 0.77052 -0.637415 0
    outer loop
      vertex 16.1803 -11.7557 0
      vertex 14.5794 -13.6909 10
      vertex 14.5794 -13.6909 0
    endloop
  endfacet
  facet normal 0 -1 0
    outer loop
      vertex -1.25581 -19.9605 0
      vertex 1.25581 -19.9605 10
      vertex -1.25581 -19.9605 10
    endloop
  endfacet
  facet normal 0 -1 -0
    outer loop
      vertex 1.25581 -19.9605 10
      vertex -1.25581 -19.9605 0
      vertex 1.25581 -19.9605 0
    endloop
  endfacet
  facet normal 0 1 -0
    outer loop
      vertex 1.25581 19.9605 0
      vertex -1.25581 19.9605 10
      vertex 1.25581 19.9605 10
    endloop
  endfacet
  facet normal 0 1 0
    outer loop
      vertex -1.25581 19.9605 10
      vertex 1.25581 19.9605 0
      vertex -1.25581 19.9605 0
    endloop
  endfacet
  facet normal -0.77052 -0.637415 0
    outer loop
      vertex -14.5794 -13.6909 0
      vertex -16.1803 -11.7557 10
      vertex -16.1803 -11.7557 0
    endloop
  endfacet
  facet normal -0.77052 -0.637415 0
    outer loop
      vertex -16.1803 -11.7557 10
      vertex -14.5794 -13.6909 0
      vertex -14.5794 -13.6909 10
    endloop
  endfacet
  facet normal 0.587776 -0.809024 0
    outer loop
      vertex 10.7165 -16.8866 0
      vertex 12.7485 -15.4103 10
      vertex 10.7165 -16.8866 10
    endloop
  endfacet
  facet normal 0.587776 -0.809024 0
    outer loop
      vertex 12.7485 -15.4103 10
      vertex 10.7165 -16.8866 0
      vertex 12.7485 -15.4103 0
    endloop
  endfacet
  facet normal 0 0 -1
    outer loop
      vertex 19.8423 -2.50666 0
      vertex 19.8423 2.50666 0
      vertex 20 0 0
    endloop
  endfacet
  facet normal 0 0 -1
    outer loop
      vertex 19.3717 -4.9738 0
      vertex 19.8423 2.50666 0
      vertex 19.8423 -2.50666 0
    endloop
  endfacet
  facet normal 0 0 -1
    outer loop
      vertex 19.3717 -4.9738 0
      vertex 19.3717 4.9738 0
      vertex 19.8423 2.50666 0
    endloop
  endfacet
  facet normal 0 0 -1
    outer loop
      vertex 18.5955 -7.36249 0
      vertex 19.3717 4.9738 0
      vertex 19.3717 -4.9738 0
    endloop
  endfacet
  facet normal 0 0 -1
    outer loop
      vertex 18.5955 -7.36249 0
      vertex 18.5955 7.36249 0
      vertex 19.3717 4.9738 0
    endloop
  endfacet
  facet normal 0 0 -1
    outer loop
      vertex 17.5261 -9.63507 0
      vertex 18.5955 7.36249 0
      vertex 18.5955 -7.36249 0
    endloop
  endfacet
  facet normal 0 0 -1
    outer loop
      vertex 17.5261 -9.63507 0
      vertex 17.5261 9.63507 0
      vertex 18.5955 7.36249 0
    endloop
  endfacet
  facet normal 0 0 -1
    outer loop
      vertex 16.1803 -11.7557 0
      vertex 17.5261 9.63507 0
      vertex 17.5261 -9.63507 0
    endloop
  endfacet
  facet normal 0 0 -1
    outer loop
      vertex 16.1803 -11.7557 0
      vertex 16.1803 11.7557 0
      vertex 17.5261 9.63507 0
    endloop
  endfacet
  facet normal 0 0 -1
    outer loop
      vertex 14.5794 -13.6909 0
      vertex 16.1803 11.7557 0
      vertex 16.1803 -11.7557 0
    endloop
  endfacet
  facet normal 0 0 -1
    outer loop
      vertex 14.5794 -13.6909 0
      vertex 14.5794 13.6909 0
      vertex 16.1803 11.7557 0
    endloop
  endfacet
  facet normal 0 0 -1
    outer loop
      vertex 12.7485 -15.4103 0
      vertex 14.5794 13.6909 0
      vertex 14.5794 -13.6909 0
    endloop
  endfacet
  facet normal 0 0 -1
    outer loop
      vertex 12.7485 -15.4103 0
      vertex 12.7485 15.4103 0
      vertex 14.5794 13.6909 0
    endloop
  endfacet
  facet normal 0 0 -1
    outer loop
      vertex 10.7165 -16.8866 0
      vertex 12.7485 15.4103 0
      vertex 12.7485 -15.4103 0
    endloop
  endfacet
  facet normal 0 0 -1
    outer loop
      vertex 10.7165 -16.8866 0
      vertex 10.7165 16.8866 0
      vertex 12.7485 15.4103 0
    endloop
  endfacet
  facet normal 0 0 -1
    outer loop
      vertex 8.51558 -18.0965 0
      vertex 10.7165 16.8866 0
      vertex 10.7165 -16.8866 0
    endloop
  endfacet
  facet normal 0 0 -1
    outer loop
      vertex 8.51558 -18.0965 0
      vertex 8.51558 18.0965 0
      vertex 10.7165 16.8866 0
    endloop
  endfacet
  facet normal 0 0 -1
    outer loop
      vertex 6.18034 -19.0211 0
      vertex 8.51558 18.0965 0
      vertex 8.51558 -18.0965 0
    endloop
  endfacet
  facet normal 0 0 -1
    outer loop
      vertex 6.18034 -19.0211 0
      vertex 6.18034 19.0211 0
      vertex 8.51558 18.0965 0
    endloop
  endfacet
  facet normal 0 0 -1
    outer loop
      vertex 3.74763 -19.6457 0
      vertex 6.18034 19.0211 0
      vertex 6.18034 -19.0211 0
    endloop
  endfacet
  facet normal 0 0 -1
    outer loop
      vertex 3.74763 -19.6457 0
      vertex 3.74763 19.6457 0
      vertex 6.18034 19.0211 0
    endloop
  endfacet
  facet normal 0 0 -1
    outer loop
      vertex 1.25581 -19.9605 0
      vertex 3.74763 19.6457 0
      vertex 3.74763 -19.6457 0
    endloop
  endfacet
  facet normal 0 0 -1
    outer loop
      vertex 1.25581 -19.9605 0
      vertex 1.25581 19.9605 0
      vertex 3.74763 19.6457 0
    endloop
  endfacet
  facet normal 0 0 -1
    outer loop
      vertex -1.25581 -19.9605 0
      vertex 1.25581 19.9605 0
      vertex 1.25581 -19.9605 0
    endloop
  endfacet
  facet normal 0 0 -1
    outer loop
      vertex -1.25581 -19.9605 0
      vertex -1.25581 19.9605 0
      vertex 1.25581 19.9605 0
    endloop
  endfacet
  facet normal 0 0 -1
    outer loop
      vertex -3.74763 -19.6457 0
      vertex -1.25581 19.9605 0
      vertex -1.25581 -19.9605 0
    endloop
  endfacet
  facet normal 0 0 -1
    outer loop
      vertex -3.74763 -19.6457 0
      vertex -3.74763 19.6457 0
      vertex -1.25581 19.9605 0
    endloop
  endfacet
  facet normal 0 0 -1
    outer loop
      vertex -6.18034 -19.0211 0
      vertex -3.74763 19.6457 0
      vertex -3.74763 -19.6457 0
    endloop
  endfacet
  facet normal 0 0 -1
    outer loop
      vertex -6.18034 -19.0211 0
      vertex -6.18034 19.0211 0
      vertex -3.74763 19.6457 0
    endloop
  endfacet
  facet normal 0 0 -1
    outer loop
      vertex -8.51558 -18.0965 0
      vertex -6.18034 19.0211 0
      vertex -6.18034 -19.0211 0
    endloop
  endfacet
  facet normal 0 0 -1
    outer loop
      vertex -8.51558 -18.0965 0
      vertex -8.51558 18.0965 0
      vertex -6.18034 19.0211 0
    endloop
  endfacet
  facet normal 0 0 -1
    outer loop
      vertex -10.7165 -16.8866 0
      vertex -8.51558 18.0965 0
      vertex -8.51558 -18.0965 0
    endloop
  endfacet
  facet normal 0 0 -1
    outer loop
      vertex -10.7165 -16.8866 0
      vertex -10.7165 16.8866 0
      vertex -8.51558 18.0965 0
    endloop
  endfacet
  facet normal 0 0 -1
    outer loop
      vertex -12.7485 -15.4103 0
      vertex -10.7165 16.8866 0
      vertex -10.7165 -16.8866 0
    endloop
  endfacet
  facet normal 0 0 -1
    outer loop
      vertex -12.7485 -15.4103 0
      vertex -12.7485 15.4103 0
      vertex -10.7165 16.8866 0
    endloop
  endfacet
  facet normal 0 0 -1
    outer loop
      vertex -14.5794 -13.6909 0
      vertex -12.7485 15.4103 0
      vertex -12.7485 -15.4103 0
    endloop
  endfacet
  facet normal 0 0 -1
    outer loop
      vertex -14.5794 -13.6909 0
      vertex -14.5794 13.6909 0
      vertex -12.7485 15.4103 0
    endloop
  endfacet
  facet normal 0 0 -1
    outer loop
      vertex -16.1803 -11.7557 0
      vertex -14.5794 13.6909 0
      vertex -14.5794 -13.6909 0
    endloop
  endfacet
  facet normal 0 0 -1
    outer loop
      vertex -16.1803 -11.7557 0
      vertex -16.1803 11.7557 0
      vertex -14.5794 13.6909 0
    endloop
  endfacet
  facet normal 0 0 -1
    outer loop
      vertex -17.5261 -9.63507 0
      vertex -16.1803 11.7557 0
      vertex -16.1803 -11.7557 0
    endloop
  endfacet
  facet normal 0 0 -1
    outer loop
      vertex -17.5261 -9.63507 0
      vertex -17.5261 9.63507 0
      vertex -16.1803 11.7557 0
    endloop
  endfacet
  facet normal 0 0 -1
    outer loop
      vertex -18.5955 -7.36249 0
      vertex -17.5261 9.63507 0
      vertex -17.5261 -9.63507 0
    endloop
  endfacet
  facet normal 0 0 -1
    outer loop
      vertex -18.5955 -7.36249 0
      vertex -18.5955 7.36249 0
      vertex -17.5261 9.63507 0
    endloop
  endfacet
  facet normal 0 0 -1
    outer loop
      vertex -19.3717 -4.9738 0
      vertex -18.5955 7.36249 0
      vertex -18.5955 -7.36249 0
    endloop
  endfacet
  facet normal 0 0 -1
    outer loop
      vertex -19.3717 -4.9738 0
      vertex -19.3717 4.9738 0
      vertex -18.5955 7.36249 0
    endloop
  endfacet
  facet normal 0 0 -1
    outer loop
      vertex -19.8423 -2.50666 0
      vertex -19.3717 4.9738 0
      vertex -19.3717 -4.9738 0
    endloop
  endfacet
  facet normal 0 0 -1
    outer loop
      vertex -19.8423 -2.50666 0
      vertex -19.8423 2.50666 0
      vertex -19.3717 4.9738 0
    endloop
  endfacet
  facet normal 0 -0 -1
    outer loop
      vertex -19.8423 2.50666 0
      vertex -19.8423 -2.50666 0
      vertex -20 0 0
    endloop
  endfacet
  facet normal -0.684562 0.728955 0
    outer loop
      vertex -12.7485 15.4103 0
      vertex -14.5794 13.6909 10
      vertex -12.7485 15.4103 10
    endloop
  endfacet
  facet normal -0.684562 0.728955 0
    outer loop
      vertex -14.5794 13.6909 10
      vertex -12.7485 15.4103 0
      vertex -14.5794 13.6909 0
    endloop
  endfacet
  facet normal 0.368129 -0.929775 0
    outer loop
      vertex 6.18034 -19.0211 0
      vertex 8.51558 -18.0965 10
      vertex 6.18034 -19.0211 10
    endloop
  endfacet
  facet normal 0.368129 -0.929775 0
    outer loop
      vertex 8.51558 -18.0965 10
      vertex 6.18034 -19.0211 0
      vertex 8.51558 -18.0965 0
    endloop
  endfacet
  facet normal -0.587776 0.809024 0
    outer loop
      vertex -10.7165 16.8866 0
      vertex -12.7485 15.4103 10
      vertex -10.7165 16.8866 10
    endloop
  endfacet
  facet normal -0.587776 0.809024 0
    outer loop
      vertex -12.7485 15.4103 10
      vertex -10.7165 16.8866 0
      vertex -12.7485 15.4103 0
    endloop
  endfacet
  facet normal -0.951049 0.309041 0
    outer loop
      vertex -19.3717 4.9738 0
      vertex -18.5955 7.36249 10
      vertex -18.5955 7.36249 0
    endloop
  endfacet
  facet normal -0.951049 0.309041 0
    outer loop
      vertex -18.5955 7.36249 10
      vertex -19.3717 4.9738 0
      vertex -19.3717 4.9738 10
    endloop
  endfacet
  facet normal -0.98229 0.187369 0
    outer loop
      vertex -19.8423 2.50666 0
      vertex -19.3717 4.9738 10
      vertex -19.3717 4.9738 0
    endloop
  endfacet
  facet normal -0.98229 0.187369 0
    outer loop
      vertex -19.3717 4.9738 10
      vertex -19.8423 2.50666 0
      vertex -19.8423 2.50666 10
    endloop
  endfacet
  facet normal -0.98229 -0.187369 0
    outer loop
      vertex -19.3717 -4.9738 0
      vertex -19.8423 -2.50666 10
      vertex -19.8423 -2.50666 0
    endloop
  endfacet
  facet normal -0.98229 -0.187369 0
    outer loop
      vertex -19.8423 -2.50666 10
      vertex -19.3717 -4.9738 0
      vertex -19.3717 -4.9738 10
    endloop
  endfacet
  facet normal -0.125337 0.992114 0
    outer loop
      vertex -1.25581 19.9605 0
      vertex -3.74763 19.6457 10
      vertex -1.25581 19.9605 10
    endloop
  endfacet
  facet normal -0.125337 0.992114 0
    outer loop
      vertex -3.74763 19.6457 10
      vertex -1.25581 19.9605 0
      vertex -3.74763 19.6457 0
    endloop
  endfacet
  facet normal -0.998027 -0.0627883 0
    outer loop
      vertex -19.8423 -2.50666 0
      vertex -20 0 10
      vertex -20 0 0
    endloop
  endfacet
  facet normal -0.998027 -0.0627883 0
    outer loop
      vertex -20 0 10
      vertex -19.8423 -2.50666 0
      vertex -19.8423 -2.50666 10
    endloop
  endfacet
  facet normal -0.998027 0.0627883 0
    outer loop
      vertex -20 0 0
      vertex -19.8423 2.50666 10
      vertex -19.8423 2.50666 0
    endloop
  endfacet
  facet normal -0.998027 0.0627883 0
    outer loop
      vertex -19.8423 2.50666 10
      vertex -20 0 0
      vertex -20 0 10
    endloop
  endfacet
  facet normal -0.684562 -0.728955 0
    outer loop
      vertex -14.5794 -13.6909 0
      vertex -12.7485 -15.4103 10
      vertex -14.5794 -13.6909 10
    endloop
  endfacet
  facet normal -0.684562 -0.728955 -0
    outer loop
      vertex -12.7485 -15.4103 10
      vertex -14.5794 -13.6909 0
      vertex -12.7485 -15.4103 0
    endloop
  endfacet
  facet normal -0.904826 -0.425781 0
    outer loop
      vertex -17.5261 -9.63507 0
      vertex -18.5955 -7.36249 10
      vertex -18.5955 -7.36249 0
    endloop
  endfacet
  facet normal -0.904826 -0.425781 0
    outer loop
      vertex -18.5955 -7.36249 10
      vertex -17.5261 -9.63507 0
      vertex -17.5261 -9.63507 10
    endloop
  endfacet
  facet normal 0.904826 -0.425781 0
    outer loop
      vertex 17.5261 -9.63507 10
      vertex 18.5955 -7.36249 0
      vertex 18.5955 -7.36249 10
    endloop
  endfacet
  facet normal 0.904826 -0.425781 0
    outer loop
      vertex 18.5955 -7.36249 0
      vertex 17.5261 -9.63507 10
      vertex 17.5261 -9.63507 0
    endloop
  endfacet
  facet normal -0.248685 -0.968584 0
    outer loop
      vertex -6.18034 -19.0211 0
      vertex -3.74763 -19.6457 10
      vertex -6.18034 -19.0211 10
    endloop
  endfacet
  facet normal -0.248685 -0.968584 -0
    outer loop
      vertex -3.74763 -19.6457 10
      vertex -6.18034 -19.0211 0
      vertex -3.74763 -19.6457 0
    endloop
  endfacet
  facet normal -0.982284 -0.187396 0
    outer loop
      vertex 10.4172 1.316 5
      vertex 10.1701 2.61124 10
      vertex 10.1701 2.61124 5
    endloop
  endfacet
  facet normal -0.982284 -0.187396 0
    outer loop
      vertex 10.1701 2.61124 10
      vertex 10.4172 1.316 5
      vertex 10.4172 1.316 10
    endloop
  endfacet
  facet normal -0.998027 -0.0627938 0
    outer loop
      vertex 10.5 0 5
      vertex 10.4172 1.316 10
      vertex 10.4172 1.316 5
    endloop
  endfacet
  facet normal -0.998027 -0.0627938 0
    outer loop
      vertex 10.4172 1.316 10
      vertex 10.5 0 5
      vertex 10.5 0 10
    endloop
  endfacet
  facet normal -0.844328 -0.535826 0
    outer loop
      vertex 9.20122 5.05841 5
      vertex 8.49468 6.17174 10
      vertex 8.49468 6.17174 5
    endloop
  endfacet
  facet normal -0.844328 -0.535826 0
    outer loop
      vertex 8.49468 6.17174 10
      vertex 9.20122 5.05841 5
      vertex 9.20122 5.05841 10
    endloop
  endfacet
  facet normal 0.12536 0.992111 -0
    outer loop
      vertex -0.6593 -10.4793 5
      vertex -1.9675 -10.314 10
      vertex -0.6593 -10.4793 10
    endloop
  endfacet
  facet normal 0.12536 0.992111 0
    outer loop
      vertex -1.9675 -10.314 10
      vertex -0.6593 -10.4793 5
      vertex -1.9675 -10.314 5
    endloop
  endfacet
  facet normal -0.684549 0.728967 0
    outer loop
      vertex 7.65417 -7.18774 5
      vertex 6.69295 -8.09039 10
      vertex 7.65417 -7.18774 10
    endloop
  endfacet
  facet normal -0.684549 0.728967 0
    outer loop
      vertex 6.69295 -8.09039 10
      vertex 7.65417 -7.18774 5
      vertex 6.69295 -8.09039 5
    endloop
  endfacet
  facet normal 0.844328 0.535826 0
    outer loop
      vertex -8.49468 -6.17174 10
      vertex -9.20122 -5.05841 5
      vertex -9.20122 -5.05841 10
    endloop
  endfacet
  facet normal 0.844328 0.535826 0
    outer loop
      vertex -9.20122 -5.05841 5
      vertex -8.49468 -6.17174 10
      vertex -8.49468 -6.17174 5
    endloop
  endfacet
  facet normal -0.684549 -0.728967 0
    outer loop
      vertex 6.69295 8.09039 5
      vertex 7.65417 7.18774 10
      vertex 6.69295 8.09039 10
    endloop
  endfacet
  facet normal -0.684549 -0.728967 -0
    outer loop
      vertex 7.65417 7.18774 10
      vertex 6.69295 8.09039 5
      vertex 7.65417 7.18774 5
    endloop
  endfacet
  facet normal -0.12536 -0.992111 0
    outer loop
      vertex 0.6593 10.4793 5
      vertex 1.9675 10.314 10
      vertex 0.6593 10.4793 10
    endloop
  endfacet
  facet normal -0.12536 -0.992111 -0
    outer loop
      vertex 1.9675 10.314 10
      vertex 0.6593 10.4793 5
      vertex 1.9675 10.314 5
    endloop
  endfacet
  facet normal -0.24868 0.968586 0
    outer loop
      vertex 3.24468 -9.98609 5
      vertex 1.9675 -10.314 10
      vertex 3.24468 -9.98609 10
    endloop
  endfacet
  facet normal -0.24868 0.968586 0
    outer loop
      vertex 1.9675 -10.314 10
      vertex 3.24468 -9.98609 5
      vertex 1.9675 -10.314 5
    endloop
  endfacet
  facet normal 0.368126 -0.929776 0
    outer loop
      vertex -4.47068 9.50068 5
      vertex -3.24468 9.98609 10
      vertex -4.47068 9.50068 10
    endloop
  endfacet
  facet normal 0.368126 -0.929776 0
    outer loop
      vertex -3.24468 9.98609 10
      vertex -4.47068 9.50068 5
      vertex -3.24468 9.98609 5
    endloop
  endfacet
  facet normal 0.951061 -0.309002 0
    outer loop
      vertex -10.1701 2.61124 10
      vertex -9.76265 3.86531 5
      vertex -9.76265 3.86531 10
    endloop
  endfacet
  facet normal 0.951061 -0.309002 0
    outer loop
      vertex -9.76265 3.86531 5
      vertex -10.1701 2.61124 10
      vertex -10.1701 2.61124 5
    endloop
  endfacet
  facet normal -0.368126 -0.929776 0
    outer loop
      vertex 3.24468 9.98609 5
      vertex 4.47068 9.50068 10
      vertex 3.24468 9.98609 10
    endloop
  endfacet
  facet normal -0.368126 -0.929776 -0
    outer loop
      vertex 4.47068 9.50068 10
      vertex 3.24468 9.98609 5
      vertex 4.47068 9.50068 5
    endloop
  endfacet
  facet normal -0.998027 0.0627938 0
    outer loop
      vertex 10.4172 -1.316 5
      vertex 10.5 0 10
      vertex 10.5 0 5
    endloop
  endfacet
  facet normal -0.998027 0.0627938 0
    outer loop
      vertex 10.5 0 10
      vertex 10.4172 -1.316 5
      vertex 10.4172 -1.316 10
    endloop
  endfacet
  facet normal -0.982284 0.187396 0
    outer loop
      vertex 10.1701 -2.61124 5
      vertex 10.4172 -1.316 10
      vertex 10.4172 -1.316 5
    endloop
  endfacet
  facet normal -0.982284 0.187396 0
    outer loop
      vertex 10.4172 -1.316 10
      vertex 10.1701 -2.61124 5
      vertex 10.1701 -2.61124 10
    endloop
  endfacet
  facet normal -0.904827 0.425779 0
    outer loop
      vertex 9.20122 -5.05841 5
      vertex 9.76265 -3.86531 10
      vertex 9.76265 -3.86531 5
    endloop
  endfacet
  facet normal -0.904827 0.425779 0
    outer loop
      vertex 9.76265 -3.86531 10
      vertex 9.20122 -5.05841 5
      vertex 9.20122 -5.05841 10
    endloop
  endfacet
  facet normal 0.587783 -0.809018 0
    outer loop
      vertex -6.69295 8.09039 5
      vertex -5.62618 8.86544 10
      vertex -6.69295 8.09039 10
    endloop
  endfacet
  facet normal 0.587783 -0.809018 0
    outer loop
      vertex -5.62618 8.86544 10
      vertex -6.69295 8.09039 5
      vertex -5.62618 8.86544 5
    endloop
  endfacet
  facet normal 0.951061 0.309002 0
    outer loop
      vertex -9.76265 -3.86531 10
      vertex -10.1701 -2.61124 5
      vertex -10.1701 -2.61124 10
    endloop
  endfacet
  facet normal 0.951061 0.309002 0
    outer loop
      vertex -10.1701 -2.61124 5
      vertex -9.76265 -3.86531 10
      vertex -9.76265 -3.86531 5
    endloop
  endfacet
  facet normal 0.998027 -0.0627938 0
    outer loop
      vertex -10.5 0 10
      vertex -10.4172 1.316 5
      vertex -10.4172 1.316 10
    endloop
  endfacet
  facet normal 0.998027 -0.0627938 0
    outer loop
      vertex -10.4172 1.316 5
      vertex -10.5 0 10
      vertex -10.5 0 5
    endloop
  endfacet
  facet normal 0.481753 -0.876307 0
    outer loop
      vertex -5.62618 8.86544 5
      vertex -4.47068 9.50068 10
      vertex -5.62618 8.86544 10
    endloop
  endfacet
  facet normal 0.481753 -0.876307 0
    outer loop
      vertex -4.47068 9.50068 10
      vertex -5.62618 8.86544 5
      vertex -4.47068 9.50068 5
    endloop
  endfacet
  facet normal -0.587783 -0.809018 0
    outer loop
      vertex 5.62618 8.86544 5
      vertex 6.69295 8.09039 10
      vertex 5.62618 8.86544 10
    endloop
  endfacet
  facet normal -0.587783 -0.809018 -0
    outer loop
      vertex 6.69295 8.09039 10
      vertex 5.62618 8.86544 5
      vertex 6.69295 8.09039 5
    endloop
  endfacet
  facet normal -0.951061 0.309002 0
    outer loop
      vertex 9.76265 -3.86531 5
      vertex 10.1701 -2.61124 10
      vertex 10.1701 -2.61124 5
    endloop
  endfacet
  facet normal -0.951061 0.309002 0
    outer loop
      vertex 10.1701 -2.61124 10
      vertex 9.76265 -3.86531 5
      vertex 9.76265 -3.86531 10
    endloop
  endfacet
  facet normal 0.684549 -0.728967 0
    outer loop
      vertex -7.65417 7.18774 5
      vertex -6.69295 8.09039 10
      vertex -7.65417 7.18774 10
    endloop
  endfacet
  facet normal 0.684549 -0.728967 0
    outer loop
      vertex -6.69295 8.09039 10
      vertex -7.65417 7.18774 5
      vertex -6.69295 8.09039 5
    endloop
  endfacet
  facet normal 0.904827 0.425779 0
    outer loop
      vertex -9.20122 -5.05841 10
      vertex -9.76265 -3.86531 5
      vertex -9.76265 -3.86531 10
    endloop
  endfacet
  facet normal 0.904827 0.425779 0
    outer loop
      vertex -9.76265 -3.86531 5
      vertex -9.20122 -5.05841 10
      vertex -9.20122 -5.05841 5
    endloop
  endfacet
  facet normal -0.844328 0.535826 0
    outer loop
      vertex 8.49468 -6.17174 5
      vertex 9.20122 -5.05841 10
      vertex 9.20122 -5.05841 5
    endloop
  endfacet
  facet normal -0.844328 0.535826 0
    outer loop
      vertex 9.20122 -5.05841 10
      vertex 8.49468 -6.17174 5
      vertex 8.49468 -6.17174 10
    endloop
  endfacet
  facet normal 0.481753 0.876307 -0
    outer loop
      vertex -4.47068 -9.50068 5
      vertex -5.62618 -8.86544 10
      vertex -4.47068 -9.50068 10
    endloop
  endfacet
  facet normal 0.481753 0.876307 0
    outer loop
      vertex -5.62618 -8.86544 10
      vertex -4.47068 -9.50068 5
      vertex -5.62618 -8.86544 5
    endloop
  endfacet
  facet normal -0.12536 0.992111 0
    outer loop
      vertex 1.9675 -10.314 5
      vertex 0.6593 -10.4793 10
      vertex 1.9675 -10.314 10
    endloop
  endfacet
  facet normal -0.12536 0.992111 0
    outer loop
      vertex 0.6593 -10.4793 10
      vertex 1.9675 -10.314 5
      vertex 0.6593 -10.4793 5
    endloop
  endfacet
  facet normal 0.904827 -0.425779 0
    outer loop
      vertex -9.76265 3.86531 10
      vertex -9.20122 5.05841 5
      vertex -9.20122 5.05841 10
    endloop
  endfacet
  facet normal 0.904827 -0.425779 0
    outer loop
      vertex -9.20122 5.05841 5
      vertex -9.76265 3.86531 10
      vertex -9.76265 3.86531 5
    endloop
  endfacet
  facet normal -0.904827 -0.425779 0
    outer loop
      vertex 9.76265 3.86531 5
      vertex 9.20122 5.05841 10
      vertex 9.20122 5.05841 5
    endloop
  endfacet
  facet normal -0.904827 -0.425779 0
    outer loop
      vertex 9.20122 5.05841 10
      vertex 9.76265 3.86531 5
      vertex 9.76265 3.86531 10
    endloop
  endfacet
  facet normal -0.481753 -0.876307 0
    outer loop
      vertex 4.47068 9.50068 5
      vertex 5.62618 8.86544 10
      vertex 4.47068 9.50068 10
    endloop
  endfacet
  facet normal -0.481753 -0.876307 -0
    outer loop
      vertex 5.62618 8.86544 10
      vertex 4.47068 9.50068 5
      vertex 5.62618 8.86544 5
    endloop
  endfacet
  facet normal 0.587783 0.809018 -0
    outer loop
      vertex -5.62618 -8.86544 5
      vertex -6.69295 -8.09039 10
      vertex -5.62618 -8.86544 10
    endloop
  endfacet
  facet normal 0.587783 0.809018 0
    outer loop
      vertex -6.69295 -8.09039 10
      vertex -5.62618 -8.86544 5
      vertex -6.69295 -8.09039 5
    endloop
  endfacet
  facet normal 0.770513 0.637425 0
    outer loop
      vertex -7.65417 -7.18774 10
      vertex -8.49468 -6.17174 5
      vertex -8.49468 -6.17174 10
    endloop
  endfacet
  facet normal 0.770513 0.637425 0
    outer loop
      vertex -8.49468 -6.17174 5
      vertex -7.65417 -7.18774 10
      vertex -7.65417 -7.18774 5
    endloop
  endfacet
  facet normal 0 0 1
    outer loop
      vertex 10.4172 1.316 5
      vertex 10.4172 -1.316 5
      vertex 10.5 0 5
    endloop
  endfacet
  facet normal 0 0 1
    outer loop
      vertex 10.1701 2.61124 5
      vertex 10.4172 -1.316 5
      vertex 10.4172 1.316 5
    endloop
  endfacet
  facet normal 0 0 1
    outer loop
      vertex 10.1701 2.61124 5
      vertex 10.1701 -2.61124 5
      vertex 10.4172 -1.316 5
    endloop
  endfacet
  facet normal 0 0 1
    outer loop
      vertex 9.76265 3.86531 5
      vertex 10.1701 -2.61124 5
      vertex 10.1701 2.61124 5
    endloop
  endfacet
  facet normal 0 0 1
    outer loop
      vertex 9.76265 3.86531 5
      vertex 9.76265 -3.86531 5
      vertex 10.1701 -2.61124 5
    endloop
  endfacet
  facet normal 0 0 1
    outer loop
      vertex 9.20122 5.05841 5
      vertex 9.76265 -3.86531 5
      vertex 9.76265 3.86531 5
    endloop
  endfacet
  facet normal 0 0 1
    outer loop
      vertex 9.20122 5.05841 5
      vertex 9.20122 -5.05841 5
      vertex 9.76265 -3.86531 5
    endloop
  endfacet
  facet normal 0 0 1
    outer loop
      vertex 8.49468 6.17174 5
      vertex 9.20122 -5.05841 5
      vertex 9.20122 5.05841 5
    endloop
  endfacet
  facet normal 0 0 1
    outer loop
      vertex 8.49468 6.17174 5
      vertex 8.49468 -6.17174 5
      vertex 9.20122 -5.05841 5
    endloop
  endfacet
  facet normal 0 0 1
    outer loop
      vertex 7.65417 7.18774 5
      vertex 8.49468 -6.17174 5
      vertex 8.49468 6.17174 5
    endloop
  endfacet
  facet normal 0 0 1
    outer loop
      vertex 7.65417 7.18774 5
      vertex 7.65417 -7.18774 5
      vertex 8.49468 -6.17174 5
    endloop
  endfacet
  facet normal 0 0 1
    outer loop
      vertex 6.69295 8.09039 5
      vertex 7.65417 -7.18774 5
      vertex 7.65417 7.18774 5
    endloop
  endfacet
  facet normal 0 0 1
    outer loop
      vertex 6.69295 8.09039 5
      vertex 6.69295 -8.09039 5
      vertex 7.65417 -7.18774 5
    endloop
  endfacet
  facet normal 0 0 1
    outer loop
      vertex 5.62618 8.86544 5
      vertex 6.69295 -8.09039 5
      vertex 6.69295 8.09039 5
    endloop
  endfacet
  facet normal 0 0 1
    outer loop
      vertex 5.62618 8.86544 5
      vertex 5.62618 -8.86544 5
      vertex 6.69295 -8.09039 5
    endloop
  endfacet
  facet normal 0 0 1
    outer loop
      vertex 4.47068 9.50068 5
      vertex 5.62618 -8.86544 5
      vertex 5.62618 8.86544 5
    endloop
  endfacet
  facet normal 0 0 1
    outer loop
      vertex 4.47068 9.50068 5
      vertex 4.47068 -9.50068 5
      vertex 5.62618 -8.86544 5
    endloop
  endfacet
  facet normal 0 0 1
    outer loop
      vertex 3.24468 9.98609 5
      vertex 4.47068 -9.50068 5
      vertex 4.47068 9.50068 5
    endloop
  endfacet
  facet normal 0 0 1
    outer loop
      vertex 3.24468 9.98609 5
      vertex 3.24468 -9.98609 5
      vertex 4.47068 -9.50068 5
    endloop
  endfacet
  facet normal 0 0 1
    outer loop
      vertex 1.9675 10.314 5
      vertex 3.24468 -9.98609 5
      vertex 3.24468 9.98609 5
    endloop
  endfacet
  facet normal 0 0 1
    outer loop
      vertex 1.9675 10.314 5
      vertex 1.9675 -10.314 5
      vertex 3.24468 -9.98609 5
    endloop
  endfacet
  facet normal 0 0 1
    outer loop
      vertex 0.6593 10.4793 5
      vertex 1.9675 -10.314 5
      vertex 1.9675 10.314 5
    endloop
  endfacet
  facet normal 0 0 1
    outer loop
      vertex 0.6593 10.4793 5
      vertex 0.6593 -10.4793 5
      vertex 1.9675 -10.314 5
    endloop
  endfacet
  facet normal -0 0 1
    outer loop
      vertex -0.6593 10.4793 5
      vertex 0.6593 -10.4793 5
      vertex 0.6593 10.4793 5
    endloop
  endfacet
  facet normal 0 0 1
    outer loop
      vertex -0.6593 10.4793 5
      vertex -0.6593 -10.4793 5
      vertex 0.6593 -10.4793 5
    endloop
  endfacet
  facet normal -0 0 1
    outer loop
      vertex -1.9675 10.314 5
      vertex -0.6593 -10.4793 5
      vertex -0.6593 10.4793 5
    endloop
  endfacet
  facet normal 0 0 1
    outer loop
      vertex -1.9675 10.314 5
      vertex -1.9675 -10.314 5
      vertex -0.6593 -10.4793 5
    endloop
  endfacet
  facet normal -0 0 1
    outer loop
      vertex -3.24468 9.98609 5
      vertex -1.9675 -10.314 5
      vertex -1.9675 10.314 5
    endloop
  endfacet
  facet normal 0 0 1
    outer loop
      vertex -3.24468 9.98609 5
      vertex -3.24468 -9.98609 5
      vertex -1.9675 -10.314 5
    endloop
  endfacet
  facet normal -0 0 1
    outer loop
      vertex -4.47068 9.50068 5
      vertex -3.24468 -9.98609 5
      vertex -3.24468 9.98609 5
    endloop
  endfacet
  facet normal 0 0 1
    outer loop
      vertex -4.47068 9.50068 5
      vertex -4.47068 -9.50068 5
      vertex -3.24468 -9.98609 5
    endloop
  endfacet
  facet normal -0 0 1
    outer loop
      vertex -5.62618 8.86544 5
      vertex -4.47068 -9.50068 5
      vertex -4.47068 9.50068 5
    endloop
  endfacet
  facet normal 0 0 1
    outer loop
      vertex -5.62618 8.86544 5
      vertex -5.62618 -8.86544 5
      vertex -4.47068 -9.50068 5
    endloop
  endfacet
  facet normal -0 0 1
    outer loop
      vertex -6.69295 8.09039 5
      vertex -5.62618 -8.86544 5
      vertex -5.62618 8.86544 5
    endloop
  endfacet
  facet normal 0 0 1
    outer loop
      vertex -6.69295 8.09039 5
      vertex -6.69295 -8.09039 5
      vertex -5.62618 -8.86544 5
    endloop
  endfacet
  facet normal -0 0 1
    outer loop
      vertex -7.65417 7.18774 5
      vertex -6.69295 -8.09039 5
      vertex -6.69295 8.09039 5
    endloop
  endfacet
  facet normal 0 0 1
    outer loop
      vertex -7.65417 7.18774 5
      vertex -7.65417 -7.18774 5
      vertex -6.69295 -8.09039 5
    endloop
  endfacet
  facet normal -0 0 1
    outer loop
      vertex -8.49468 6.17174 5
      vertex -7.65417 -7.18774 5
      vertex -7.65417 7.18774 5
    endloop
  endfacet
  facet normal 0 0 1
    outer loop
      vertex -8.49468 6.17174 5
      vertex -8.49468 -6.17174 5
      vertex -7.65417 -7.18774 5
    endloop
  endfacet
  facet normal -0 0 1
    outer loop
      vertex -9.20122 5.05841 5
      vertex -8.49468 -6.17174 5
      vertex -8.49468 6.17174 5
    endloop
  endfacet
  facet normal 0 0 1
    outer loop
      vertex -9.20122 5.05841 5
      vertex -9.20122 -5.05841 5
      vertex -8.49468 -6.17174 5
    endloop
  endfacet
  facet normal -0 0 1
    outer loop
      vertex -9.76265 3.86531 5
      vertex -9.20122 -5.05841 5
      vertex -9.20122 5.05841 5
    endloop
  endfacet
  facet normal 0 0 1
    outer loop
      vertex -9.76265 3.86531 5
      vertex -9.76265 -3.86531 5
      vertex -9.20122 -5.05841 5
    endloop
  endfacet
  facet normal -0 0 1
    outer loop
      vertex -10.1701 2.61124 5
      vertex -9.76265 -3.86531 5
      vertex -9.76265 3.86531 5
    endloop
  endfacet
  facet normal 0 0 1
    outer loop
      vertex -10.1701 2.61124 5
      vertex -10.1701 -2.61124 5
      vertex -9.76265 -3.86531 5
    endloop
  endfacet
  facet normal -0 0 1
    outer loop
      vertex -10.4172 1.316 5
      vertex -10.1701 -2.61124 5
      vertex -10.1701 2.61124 5
    endloop
  endfacet
  facet normal 0 0 1
    outer loop
      vertex -10.4172 1.316 5
      vertex -10.4172 -1.316 5
      vertex -10.1701 -2.61124 5
    endloop
  endfacet
  facet normal 0 -0 1
    outer loop
      vertex -10.4172 -1.316 5
      vertex -10.4172 1.316 5
      vertex -10.5 0 5
    endloop
  endfacet
  facet normal 0.12536 -0.992111 0
    outer loop
      vertex -1.9675 10.314 5
      vertex -0.6593 10.4793 10
      vertex -1.9675 10.314 10
    endloop
  endfacet
  facet normal 0.12536 -0.992111 0
    outer loop
      vertex -0.6593 10.4793 10
      vertex -1.9675 10.314 5
      vertex -0.6593 10.4793 5
    endloop
  endfacet
  facet normal -0.368126 0.929776 0
    outer loop
      vertex 4.47068 -9.50068 5
      vertex 3.24468 -9.98609 10
      vertex 4.47068 -9.50068 10
    endloop
  endfacet
  facet normal -0.368126 0.929776 0
    outer loop
      vertex 3.24468 -9.98609 10
      vertex 4.47068 -9.50068 5
      vertex 3.24468 -9.98609 5
    endloop
  endfacet
  facet normal -0.481753 0.876307 0
    outer loop
      vertex 5.62618 -8.86544 5
      vertex 4.47068 -9.50068 10
      vertex 5.62618 -8.86544 10
    endloop
  endfacet
  facet normal -0.481753 0.876307 0
    outer loop
      vertex 4.47068 -9.50068 10
      vertex 5.62618 -8.86544 5
      vertex 4.47068 -9.50068 5
    endloop
  endfacet
  facet normal 0.24868 0.968586 -0
    outer loop
      vertex -1.9675 -10.314 5
      vertex -3.24468 -9.98609 10
      vertex -1.9675 -10.314 10
    endloop
  endfacet
  facet normal 0.24868 0.968586 0
    outer loop
      vertex -3.24468 -9.98609 10
      vertex -1.9675 -10.314 5
      vertex -3.24468 -9.98609 5
    endloop
  endfacet
  facet normal 0 -1 0
    outer loop
      vertex -0.6593 10.4793 5
      vertex 0.6593 10.4793 10
      vertex -0.6593 10.4793 10
    endloop
  endfacet
  facet normal 0 -1 -0
    outer loop
      vertex 0.6593 10.4793 10
      vertex -0.6593 10.4793 5
      vertex 0.6593 10.4793 5
    endloop
  endfacet
  facet normal -0.770513 -0.637425 0
    outer loop
      vertex 8.49468 6.17174 5
      vertex 7.65417 7.18774 10
      vertex 7.65417 7.18774 5
    endloop
  endfacet
  facet normal -0.770513 -0.637425 0
    outer loop
      vertex 7.65417 7.18774 10
      vertex 8.49468 6.17174 5
      vertex 8.49468 6.17174 10
    endloop
  endfacet
  facet normal -0.951061 -0.309002 0
    outer loop
      vertex 10.1701 2.61124 5
      vertex 9.76265 3.86531 10
      vertex 9.76265 3.86531 5
    endloop
  endfacet
  facet normal -0.951061 -0.309002 0
    outer loop
      vertex 9.76265 3.86531 10
      vertex 10.1701 2.61124 5
      vertex 10.1701 2.61124 10
    endloop
  endfacet
  facet normal 0.982284 0.187396 0
    outer loop
      vertex -10.1701 -2.61124 10
      vertex -10.4172 -1.316 5
      vertex -10.4172 -1.316 10
    endloop
  endfacet
  facet normal 0.982284 0.187396 0
    outer loop
      vertex -10.4172 -1.316 5
      vertex -10.1701 -2.61124 10
      vertex -10.1701 -2.61124 5
    endloop
  endfacet
  facet normal 0.24868 -0.968586 0
    outer loop
      vertex -3.24468 9.98609 5
      vertex -1.9675 10.314 10
      vertex -3.24468 9.98609 10
    endloop
  endfacet
  facet normal 0.24868 -0.968586 0
    outer loop
      vertex -1.9675 10.314 10
      vertex -3.24468 9.98609 5
      vertex -1.9675 10.314 5
    endloop
  endfacet
  facet normal 0 1 -0
    outer loop
      vertex 0.6593 -10.4793 5
      vertex -0.6593 -10.4793 10
      vertex 0.6593 -10.4793 10
    endloop
  endfacet
  facet normal 0 1 0
    outer loop
      vertex -0.6593 -10.4793 10
      vertex 0.6593 -10.4793 5
      vertex -0.6593 -10.4793 5
    endloop
  endfacet
  facet normal -0.24868 -0.968586 0
    outer loop
      vertex 1.9675 10.314 5
      vertex 3.24468 9.98609 10
      vertex 1.9675 10.314 10
    endloop
  endfacet
  facet normal -0.24868 -0.968586 -0
    outer loop
      vertex 3.24468 9.98609 10
      vertex 1.9675 10.314 5
      vertex 3.24468 9.98609 5
    endloop
  endfacet
  facet normal -0.770513 0.637425 0
    outer loop
      vertex 7.65417 -7.18774 5
      vertex 8.49468 -6.17174 10
      vertex 8.49468 -6.17174 5
    endloop
  endfacet
  facet normal -0.770513 0.637425 0
    outer loop
      vertex 8.49468 -6.17174 10
      vertex 7.65417 -7.18774 5
      vertex 7.65417 -7.18774 10
    endloop
  endfacet
  facet normal 0.684549 0.728967 -0
    outer loop
      vertex -6.69295 -8.09039 5
      vertex -7.65417 -7.18774 10
      vertex -6.69295 -8.09039 10
    endloop
  endfacet
  facet normal 0.684549 0.728967 0
    outer loop
      vertex -7.65417 -7.18774 10
      vertex -6.69295 -8.09039 5
      vertex -7.65417 -7.18774 5
    endloop
  endfacet
  facet normal 0.368126 0.929776 -0
    outer loop
      vertex -3.24468 -9.98609 5
      vertex -4.47068 -9.50068 10
      vertex -3.24468 -9.98609 10
    endloop
  endfacet
  facet normal 0.368126 0.929776 0
    outer loop
      vertex -4.47068 -9.50068 10
      vertex -3.24468 -9.98609 5
      vertex -4.47068 -9.50068 5
    endloop
  endfacet
  facet normal 0.998027 0.0627938 0
    outer loop
      vertex -10.4172 -1.316 10
      vertex -10.5 0 5
      vertex -10.5 0 10
    endloop
  endfacet
  facet normal 0.998027 0.0627938 0
    outer loop
      vertex -10.5 0 5
      vertex -10.4172 -1.316 10
      vertex -10.4172 -1.316 5
    endloop
  endfacet
  facet normal 0.982284 -0.187396 0
    outer loop
      vertex -10.4172 1.316 10
      vertex -10.1701 2.61124 5
      vertex -10.1701 2.61124 10
    endloop
  endfacet
  facet normal 0.982284 -0.187396 0
    outer loop
      vertex -10.1701 2.61124 5
      vertex -10.4172 1.316 10
      vertex -10.4172 1.316 5
    endloop
  endfacet
  facet normal 0.770513 -0.637425 0
    outer loop
      vertex -8.49468 6.17174 10
      vertex -7.65417 7.18774 5
      vertex -7.65417 7.18774 10
    endloop
  endfacet
  facet normal 0.770513 -0.637425 0
    outer loop
      vertex -7.65417 7.18774 5
      vertex -8.49468 6.17174 10
      vertex -8.49468 6.17174 5
    endloop
  endfacet
  facet normal -0.587783 0.809018 0
    outer loop
      vertex 6.69295 -8.09039 5
      vertex 5.62618 -8.86544 10
      vertex 6.69295 -8.09039 10
    endloop
  endfacet
  facet normal -0.587783 0.809018 0
    outer loop
      vertex 5.62618 -8.86544 10
      vertex 6.69295 -8.09039 5
      vertex 5.62618 -8.86544 5
    endloop
  endfacet
  facet normal 0.844328 -0.535826 0
    outer loop
      vertex -9.20122 5.05841 10
      vertex -8.49468 6.17174 5
      vertex -8.49468 6.17174 10
    endloop
  endfacet
  facet normal 0.844328 -0.535826 0
    outer loop
      vertex -8.49468 6.17174 5
      vertex -9.20122 5.05841 10
      vertex -9.20122 5.05841 5
    endloop
  endfacet
endsolid OpenSCAD_Model
